<?xml version="1.0" standalone="no"?>
<!DOCTYPE svg PUBLIC "-//W3C//DTD SVG 20010904//EN"
 "http://www.w3.org/TR/2001/REC-SVG-20010904/DTD/svg10.dtd">
<svg version="1.0" xmlns="http://www.w3.org/2000/svg"
 width="1024.000000pt" height="1024.000000pt" viewBox="0 0 1024.000000 1024.000000"
 preserveAspectRatio="xMidYMid meet">

<g transform="translate(0.000000,1024.000000) scale(0.100000,-0.100000)"
fill="#000000" stroke="none">
<path d="M0 7001 l0 -3240 43 -5 c23 -4 62 -8 87 -9 36 -3 32 -4 -17 -5 -40
-1 -63 -6 -63 -14 0 -6 2 -9 5 -6 3 3 27 1 53 -4 52 -10 89 -16 142 -23 19 -2
46 -7 60 -10 33 -7 101 -17 123 -18 18 -1 25 -17 6 -17 -5 0 -7 -5 -4 -11 5
-7 15 -5 31 6 24 15 24 15 12 -4 -7 -11 -9 -24 -5 -28 5 -4 12 -1 17 7 6 10
10 11 10 3 0 -10 38 -23 80 -28 3 0 11 -4 19 -9 10 -7 12 -6 6 4 -6 9 -2 10
16 5 13 -4 29 -12 36 -17 7 -6 14 -5 18 2 5 8 11 8 19 1 7 -6 26 -10 42 -10
43 0 75 -6 82 -17 10 -13 32 -16 32 -4 0 5 4 10 10 10 5 0 7 -7 4 -15 -4 -8
-1 -15 5 -15 6 0 11 6 11 13 0 8 3 9 8 1 4 -6 22 -11 40 -11 20 0 38 -7 47
-19 15 -19 15 -19 8 1 -6 17 -4 18 8 8 12 -10 18 -10 27 -1 9 9 12 9 12 1 0
-7 13 -11 30 -11 16 1 27 5 24 10 -3 4 0 8 5 8 6 0 11 -8 11 -17 0 -14 2 -15
9 -5 7 12 14 11 40 -2 30 -16 31 -16 32 6 1 15 3 17 6 7 5 -22 122 -21 141 1
8 8 11 9 7 2 -7 -14 34 -33 50 -24 20 13 36 10 31 -4 -8 -21 12 -17 26 6 7 11
17 20 22 20 4 0 3 -6 -3 -14 -9 -11 -6 -13 21 -12 18 2 41 -1 50 -6 13 -6 20
-3 28 12 12 23 35 26 43 6 3 -8 15 -14 26 -13 11 0 17 5 15 9 -3 4 9 8 25 8
17 0 31 -5 31 -11 0 -5 -6 -7 -12 -3 -10 6 -10 4 0 -7 9 -10 15 -10 24 -1 15
15 38 16 38 1 0 -6 -7 -8 -17 -4 -14 5 -15 3 -6 -6 7 -7 17 -8 25 -3 7 5 18 9
23 9 6 1 9 7 7 15 -3 11 1 10 16 -3 20 -18 47 -23 37 -7 -4 6 -11 7 -17 4 -7
-4 -8 -2 -4 4 5 8 13 9 24 3 9 -4 23 -6 31 -3 10 3 11 0 5 -9 -6 -12 -5 -12 8
-1 14 11 17 10 21 -10 3 -15 5 -9 7 17 1 22 6 51 10 65 6 20 8 14 10 -30 1
-30 2 -61 1 -67 -2 -17 7 -16 24 1 10 10 11 16 2 25 -6 6 -7 11 -2 11 5 0 19
-11 30 -24 15 -18 33 -26 63 -27 23 -2 44 0 48 4 9 9 -43 20 -66 14 -13 -3
-20 0 -20 10 0 9 6 12 18 9 9 -3 45 -10 80 -14 64 -9 94 0 44 13 l-27 8 25 7
c14 5 59 9 100 10 66 2 70 3 33 9 -72 12 -61 21 20 17 54 -2 75 0 70 8 -4 7
-2 7 7 -1 7 -6 19 -9 26 -6 9 3 14 -2 14 -16 0 -12 5 -21 11 -21 5 0 7 5 4 10
-3 6 -1 10 5 10 6 0 9 4 6 9 -7 11 28 19 76 17 20 -1 34 2 31 7 -3 4 11 5 31
2 24 -5 36 -3 36 4 0 6 7 11 16 11 8 0 12 5 8 11 -4 8 0 9 15 4 14 -4 21 -2
21 7 0 10 3 9 10 -2 9 -15 11 -13 14 12 0 7 17 13 39 13 23 1 33 -1 25 -6 -10
-7 -9 -9 5 -9 9 0 17 5 17 10 0 6 5 10 11 10 5 0 7 -4 4 -10 -7 -12 27 0 36
12 8 12 81 16 157 8 36 -3 62 -2 62 3 0 6 24 7 59 4 43 -5 63 -3 77 8 21 16
38 20 30 7 -2 -4 4 -9 15 -9 11 -1 17 2 14 7 -5 8 21 28 35 28 32 0 99 16 94
23 -3 5 4 9 16 9 12 0 18 5 15 10 -4 6 5 10 19 10 14 0 26 5 26 10 0 6 -6 10
-12 10 -10 0 -10 2 0 9 7 4 24 6 38 3 19 -3 23 -1 19 11 -6 14 16 18 97 18 9
0 19 7 22 15 3 8 12 11 22 7 11 -4 15 -2 11 4 -10 16 33 133 49 133 8 0 11 6
8 15 -5 13 3 15 52 10 56 -6 67 5 19 19 -11 3 -3 3 18 0 20 -3 37 -1 37 3 0 5
11 10 25 11 14 1 25 -2 25 -6 0 -9 58 -8 67 1 3 4 -8 7 -25 7 -18 0 -32 4 -32
8 0 8 108 7 312 -1 36 -1 65 0 62 4 -2 4 3 10 12 13 8 3 12 2 9 -3 -9 -16 29
-17 47 -2 24 20 51 23 44 5 -3 -8 -1 -14 3 -14 5 0 11 4 13 10 2 5 56 2 138
-10 74 -11 142 -20 150 -20 12 0 12 -2 2 -9 -11 -6 -9 -9 6 -13 14 -4 19 -2
16 7 -4 10 14 12 80 10 62 -2 83 0 80 9 -3 8 8 10 36 8 22 -2 40 -9 40 -16 0
-8 2 -8 8 1 6 9 26 9 85 1 42 -6 77 -15 77 -20 0 -14 90 -10 90 5 1 6 7 -3 15
-20 8 -18 20 -33 27 -33 9 0 9 3 -2 10 -13 8 -13 11 -1 22 12 11 13 10 7 -2
-4 -8 1 -4 12 9 19 24 20 24 56 7 20 -9 44 -19 54 -21 50 -12 77 -23 75 -33
-3 -12 28 -4 38 10 3 5 18 4 33 -2 15 -5 31 -8 36 -5 5 3 11 1 15 -4 3 -6 13
-7 22 -4 11 4 14 3 9 -6 -9 -14 16 -11 26 4 4 6 8 2 8 -9 0 -15 6 -17 29 -14
17 2 28 1 25 -4 -3 -4 0 -8 5 -8 6 0 11 6 11 13 0 8 3 8 8 1 12 -17 82 -46 98
-40 8 3 14 1 14 -4 0 -6 9 -10 21 -10 11 0 17 -4 14 -10 -3 -6 4 -10 16 -10
23 0 81 -16 109 -30 9 -4 21 -1 28 6 10 11 18 12 33 3 12 -6 18 -13 15 -16 -3
-3 -12 -1 -19 5 -8 7 -17 9 -20 5 -26 -26 37 -41 67 -16 19 16 19 16 7 1 -12
-17 -9 -18 49 -18 35 0 61 3 57 6 -3 4 -24 6 -47 6 -25 -1 -38 3 -34 9 4 6 22
8 46 4 29 -5 43 -3 50 6 6 10 7 6 3 -11 -5 -19 -4 -22 4 -10 6 8 11 27 11 41
0 15 6 32 14 38 11 9 14 8 12 -6 -1 -14 8 -19 41 -21 34 -3 41 -6 37 -20 -4
-10 -2 -13 3 -7 4 6 22 18 40 28 32 18 48 11 37 -17 -4 -10 0 -14 14 -13 10 0
19 8 18 17 -1 10 6 14 24 12 14 -2 26 -8 28 -12 2 -5 9 -7 17 -4 9 4 12 0 8
-14 -4 -17 5 -21 89 -35 144 -25 238 -32 238 -17 0 8 9 10 28 6 l27 -5 -28 13
c-31 14 -26 26 10 26 15 0 23 -6 23 -17 0 -14 8 -18 32 -17 42 1 102 -12 106
-24 1 -5 14 -7 29 -4 17 3 24 1 20 -6 -5 -6 4 -9 23 -8 17 1 30 -1 30 -5 0 -9
102 -21 193 -23 36 0 64 -3 62 -6 -2 -3 18 -5 43 -6 49 0 79 -4 257 -34 61
-10 137 -21 170 -25 53 -6 245 -37 301 -49 12 -2 39 -7 60 -10 22 -4 46 -8 54
-11 8 -2 33 -6 54 -10 22 -3 45 -10 53 -16 9 -8 13 -8 13 -1 0 7 10 8 30 2 17
-5 30 -7 30 -4 0 3 8 1 18 -5 9 -5 39 -12 66 -15 27 -4 52 -9 55 -10 3 -2 28
-7 55 -10 27 -4 53 -9 58 -12 4 -3 29 -7 55 -9 27 -3 68 -9 93 -14 50 -10 83
-15 245 -37 463 -61 555 -77 672 -114 105 -34 181 -46 336 -55 l107 -6 0 117
c0 99 -3 119 -17 130 -17 13 -17 13 0 14 9 0 17 4 17 9 0 12 -24 18 -79 20
-40 2 -71 7 -186 32 -67 14 -208 39 -237 41 -16 1 -28 5 -28 9 0 4 -14 9 -30
13 -17 3 -33 6 -38 7 -4 1 -12 9 -19 18 -14 21 -123 96 -151 105 -14 5 -19 14
-17 26 2 13 -2 20 -11 20 -8 0 -14 4 -14 10 0 5 -11 12 -25 16 -14 3 -25 9
-25 13 0 4 -8 7 -17 8 -10 1 -61 6 -114 12 -53 5 -165 15 -250 21 -149 10
-406 42 -480 59 -43 10 -132 68 -124 81 3 5 -7 12 -22 16 -15 3 -66 17 -112
31 -121 35 -211 51 -345 59 -64 4 -112 10 -105 14 15 10 -15 20 -56 18 -27 0
-245 34 -302 49 -19 4 -23 1 -23 -16 0 -35 -26 -35 -75 1 -25 18 -59 42 -75
53 -16 11 -29 26 -30 33 -1 31 -67 112 -91 112 -9 0 -19 7 -23 15 -3 8 -10 15
-16 15 -6 0 -8 -4 -5 -10 3 -5 1 -10 -5 -10 -7 0 -10 6 -7 13 2 6 -3 24 -11
39 l-15 26 -83 -29 c-45 -16 -88 -29 -96 -29 -7 1 11 9 41 20 63 23 111 52 94
57 -7 3 -48 -7 -93 -21 -94 -30 -113 -32 -134 -10 -20 20 -21 38 -1 30 8 -3
15 -1 15 4 0 6 -5 10 -12 10 -9 0 -9 3 0 12 14 14 16 68 3 68 -4 0 -6 -11 -3
-25 4 -25 -11 -35 -23 -15 -3 6 -11 10 -16 10 -6 0 -7 -4 -4 -10 3 -5 1 -10
-5 -10 -32 0 -21 76 13 90 l22 9 -22 0 c-13 1 -23 -4 -23 -10 0 -5 -4 -7 -10
-4 -5 3 -10 -2 -11 -12 0 -15 -2 -14 -11 5 -14 28 -23 28 -25 0 -1 -12 6 -28
15 -35 15 -13 14 -13 -5 -3 -13 6 -23 18 -23 28 0 15 -2 15 -11 2 -7 -10 -8
74 -3 273 7 297 7 295 -30 288 -5 -1 -3 5 4 14 11 13 11 18 0 28 -10 10 -12 9
-7 -5 4 -10 2 -18 -3 -18 -14 0 -12 24 2 38 9 9 16 8 30 -5 14 -13 18 -13 18
-2 1 8 8 2 16 -13 14 -27 44 -39 44 -18 0 5 -8 7 -17 4 -11 -4 -14 -3 -7 3 6
4 14 15 17 23 4 12 6 11 6 -2 1 -16 12 -23 34 -19 4 0 7 -3 7 -9 0 -5 -6 -10
-12 -10 -10 0 -9 -3 1 -9 10 -7 11 -13 2 -30 -7 -12 -17 -19 -22 -15 -7 4 -9
-1 -7 -11 1 -10 10 -20 18 -22 12 -4 12 -3 1 5 -19 13 0 23 49 25 46 1 55 17
11 17 -26 0 -30 3 -29 29 1 15 -2 33 -6 40 -9 13 4 14 24 1 10 -6 11 -10 3
-10 -20 0 -15 -18 7 -25 11 -4 18 -11 15 -16 -4 -5 -1 -9 4 -9 6 0 11 11 11
25 0 14 -4 25 -10 25 -5 0 -10 4 -10 9 0 5 12 8 28 8 15 0 21 -2 15 -4 -20 -7
-15 -29 10 -41 l22 -11 -22 0 c-18 -1 -23 -7 -23 -26 0 -18 4 -23 15 -19 8 4
15 1 15 -5 0 -6 -7 -11 -15 -11 -8 0 -15 -5 -15 -11 0 -5 -5 -7 -10 -4 -6 4
-8 10 -5 15 3 4 -2 11 -11 14 -24 9 -28 7 -15 -8 9 -11 6 -15 -14 -20 -14 -4
-25 -11 -25 -17 0 -8 4 -8 13 -1 6 5 32 9 57 8 38 -2 44 -5 42 -20 -3 -14 1
-17 12 -13 9 4 16 1 16 -5 0 -6 3 -8 6 -5 4 4 2 12 -4 20 -11 13 -14 76 -3 78
3 1 16 3 29 4 24 2 36 11 38 26 1 5 3 17 4 27 1 12 4 10 10 -8 6 -19 8 -9 9
38 1 49 -2 62 -14 62 -8 0 -15 5 -15 11 0 6 7 9 15 5 8 -3 16 0 17 7 1 7 5
-46 8 -118 3 -71 7 164 8 523 1 445 5 652 12 652 6 0 10 -6 9 -12 -5 -23 13
-81 20 -69 5 8 12 6 24 -7 13 -15 15 -25 7 -52 -7 -25 -6 -36 3 -42 8 -5 8 -8
1 -8 -15 0 -36 25 -27 33 3 4 -1 7 -10 7 -14 0 -15 -28 -12 -262 1 -145 6
-270 9 -279 4 -10 3 -20 -3 -23 -7 -4 -10 -65 -10 -161 0 -129 2 -155 14 -155
13 0 20 18 16 43 0 4 5 6 11 5 8 -2 12 5 10 16 -2 11 1 17 9 14 19 -6 22 -24
5 -41 -21 -21 -8 -29 23 -13 14 7 31 12 36 10 6 -2 11 8 11 24 1 15 -1 21 -3
14 -3 -6 -10 -9 -15 -6 -6 4 -8 2 -5 -3 4 -6 0 -13 -7 -16 -24 -10 -10 35 20
61 l26 23 15 -20 c8 -12 11 -26 8 -31 -3 -6 -1 -10 4 -10 6 0 11 -4 11 -10 0
-5 -6 -10 -14 -10 -8 0 -18 -5 -22 -12 -5 -7 -2 -9 8 -5 10 3 15 0 14 -11 0
-9 4 -16 9 -15 6 1 11 -10 11 -23 1 -13 -2 -24 -6 -24 -4 0 -6 -14 -4 -30 3
-21 -1 -33 -12 -37 -12 -5 -13 -7 -3 -14 8 -4 20 -3 28 4 10 9 10 5 -2 -14
-10 -14 -14 -29 -10 -33 4 -4 1 -11 -7 -16 -13 -9 -13 -10 0 -10 9 0 16 -10
16 -25 1 -14 -2 -25 -8 -25 -5 0 -6 6 -2 13 4 6 4 9 -1 5 -4 -4 -15 -3 -24 3
-9 6 -4 0 12 -14 15 -15 27 -30 27 -34 0 -11 20 -11 52 0 16 5 28 16 28 24 0
9 -5 11 -12 7 -10 -6 -10 -4 -2 7 6 8 10 22 9 31 -2 10 1 20 6 24 5 3 9 11 9
17 0 7 -4 6 -10 -3 -5 -8 -12 -12 -15 -8 -3 3 2 13 11 22 14 15 16 32 11 114
-3 53 -6 98 -7 100 0 2 -6 0 -12 -4 -9 -5 -9 -2 1 9 12 15 11 17 -8 17 -12 0
-20 4 -16 10 3 5 13 6 22 3 13 -5 15 -2 10 11 -4 10 -7 19 -7 22 0 2 -6 1 -14
-2 -11 -4 -13 0 -9 15 3 12 12 21 19 21 19 0 20 289 2 309 -11 11 -10 12 2 6
13 -8 13 -7 0 10 -8 10 -14 21 -14 24 1 3 -1 5 -5 4 -4 -1 -8 4 -8 11 0 7 6
13 13 13 7 0 11 -4 8 -9 -3 -4 0 -8 6 -8 6 0 9 18 8 44 -2 26 -7 42 -13 38 -5
-3 -4 1 3 10 10 13 10 17 0 21 -8 4 -7 6 5 6 19 1 23 16 6 26 -6 4 -9 21 -8
39 2 17 1 36 -3 41 -3 6 -4 18 -3 28 2 9 0 17 -4 17 -12 0 -6 32 12 68 11 20
13 32 6 32 -7 0 -8 11 -4 33 11 50 25 56 27 12 1 -38 1 -39 5 -7 3 18 -1 39
-7 47 -13 16 -20 84 -8 91 4 3 9 -5 9 -18 1 -18 2 -19 6 -5 3 10 2 25 -1 34
-5 13 -9 13 -24 2 -9 -8 -4 4 12 25 16 22 24 36 18 32 -7 -4 -12 -2 -12 4 0 6
-5 8 -10 5 -6 -3 -10 -1 -10 4 0 6 5 11 11 11 6 0 9 9 6 20 -6 22 8 28 16 8 3
-7 6 110 6 260 1 211 -2 272 -11 272 -9 0 -8 4 2 10 9 6 10 10 3 10 -6 0 -10
9 -8 20 3 16 8 1303 6 1433 -1 20 -5 37 -11 37 -5 0 -7 -7 -4 -15 5 -13 -8
-15 -92 -13 l-99 2 70 6 70 6 -62 2 c-51 2 -64 6 -73 22 -6 11 -16 17 -25 14
-8 -4 -15 -2 -16 2 0 5 -2 20 -5 34 -26 163 -28 234 -9 254 8 8 15 24 15 36 0
20 -4 21 -45 14 -39 -5 -45 -4 -46 12 -2 38 -4 143 -7 290 l-2 151 -114 5
c-62 3 -119 8 -125 12 -6 4 -11 35 -11 72 0 62 1 64 25 64 14 0 25 4 25 9 0 4
-11 6 -25 3 -25 -4 -25 -4 -25 71 0 42 -4 79 -10 82 -11 7 -13 77 -4 113 4 13
14 22 25 22 11 0 19 5 19 10 0 6 -22 10 -50 10 l-50 0 0 123 c-1 145 -7 194
-27 226 -15 23 -16 23 -27 5 -6 -11 -12 -86 -14 -186 l-4 -168 -24 0 -24 0 2
-117 c1 -65 3 -99 5 -75 3 28 9 42 19 42 8 0 14 -5 14 -11 0 -5 -4 -7 -10 -4
-5 3 -10 1 -10 -4 0 -6 3 -11 8 -11 4 0 9 -28 10 -62 2 -35 5 -65 8 -67 5 -5
8 135 5 232 -2 61 0 67 19 67 11 0 20 -1 20 -2 1 -2 3 -74 7 -161 l5 -157 -48
1 c-68 2 -70 1 -48 -17 10 -8 13 -12 6 -9 -20 11 -89 -4 -72 -15 9 -5 17 -5
21 1 4 6 9 3 13 -7 4 -10 3 -20 -2 -23 -18 -12 -20 -50 -3 -54 12 -4 12 -5 -3
-6 -20 -1 -20 -1 0 -17 18 -15 18 -15 -7 -11 -19 3 -25 -1 -26 -15 -2 -16 3
-18 30 -14 18 3 25 3 17 0 -17 -7 -40 -34 -40 -47 0 -5 6 -4 13 2 10 8 14 7
14 -4 0 -8 -4 -12 -8 -9 -8 5 -31 -30 -25 -37 10 -13 15 -59 6 -59 -6 0 -8 5
-5 10 3 6 2 10 -4 10 -16 0 -18 -14 -6 -37 6 -13 15 -20 20 -15 4 4 5 -1 2
-10 -4 -12 -1 -18 8 -18 7 0 16 -4 19 -8 3 -5 -5 -8 -17 -8 -14 1 -21 -4 -19
-13 3 -12 1 -12 -14 0 -16 13 -16 12 -6 -7 8 -16 8 -24 -1 -34 -9 -10 -9 -11
0 -6 9 5 11 2 7 -9 -5 -11 -10 -13 -19 -5 -9 8 -15 8 -20 0 -3 -5 -2 -10 2
-10 5 0 18 -7 29 -16 10 -8 13 -12 5 -8 -10 5 -11 1 -6 -17 7 -23 7 -23 -8 -4
-15 19 -15 18 -13 -15 2 -19 -1 -40 -6 -46 -5 -8 -3 -14 7 -18 17 -6 21 -36 4
-36 -5 0 -7 5 -3 12 4 7 3 8 -4 4 -15 -9 2 -46 21 -46 7 -1 2 -6 -11 -13 l-22
-13 33 -32 c19 -18 34 -40 34 -49 0 -13 -4 -12 -18 6 l-18 21 -6 -21 c-4 -11
-4 -23 -1 -26 3 -4 6 0 6 7 0 9 5 7 15 -6 8 -10 14 -23 15 -29 0 -5 -5 -3 -10
5 -8 13 -10 12 -10 -2 0 -21 -11 -23 -27 -7 -9 9 -10 7 -6 -10 3 -11 12 -21
19 -21 23 0 16 -18 -8 -23 l-23 -4 23 -2 c20 -1 26 -9 20 -28 -2 -5 -7 -7 -13
-5 -5 2 -1 -7 10 -19 17 -19 17 -21 3 -16 -9 3 -22 -1 -30 -11 -9 -11 -10 -14
0 -8 16 9 16 -6 0 -23 -11 -11 -10 -13 4 -8 13 5 15 2 11 -11 -4 -9 -11 -20
-17 -24 -7 -5 -6 -8 3 -8 7 0 11 -6 7 -15 -3 -8 -2 -15 3 -15 4 0 8 -7 8 -15
0 -8 -4 -15 -8 -15 -5 0 -4 -11 1 -25 6 -16 6 -25 0 -25 -6 0 -10 7 -10 15 0
8 -7 15 -15 15 -13 0 -12 -4 4 -22 14 -14 19 -30 16 -49 -3 -18 0 -29 10 -33
8 -3 15 -10 15 -16 0 -6 -5 -8 -12 -4 -17 11 -48 12 -42 2 3 -4 11 -8 19 -8
15 0 14 -48 -1 -59 -13 -9 -16 -31 -4 -31 6 0 9 -15 7 -35 -2 -19 -1 -34 2
-33 28 3 33 -3 15 -17 -14 -11 -16 -15 -4 -15 12 0 10 -4 -4 -15 -17 -13 -18
-15 -3 -15 9 0 17 -5 17 -11 0 -5 -5 -7 -11 -3 -6 3 -3 -5 6 -19 9 -15 14 -31
10 -37 -3 -5 0 -10 7 -10 8 -1 5 -7 -7 -17 -18 -14 -18 -15 -1 -9 16 5 17 2
12 -20 -6 -21 -4 -25 7 -21 26 10 13 -27 -13 -40 -14 -7 -19 -12 -12 -13 6 0
12 -7 12 -15 0 -13 2 -14 14 -3 8 7 11 18 8 23 -3 6 -2 7 3 3 4 -4 15 -2 24 5
14 10 14 10 4 -4 -7 -9 -9 -19 -5 -23 4 -4 3 -6 -3 -4 -5 2 -10 -1 -10 -7 0
-5 3 -9 8 -7 4 1 7 -2 7 -8 0 -5 -4 -10 -10 -10 -5 0 -10 -5 -10 -11 0 -5 4
-8 8 -5 5 3 8 -5 7 -17 -1 -12 2 -28 8 -34 7 -9 5 -13 -6 -13 -9 0 -19 -5 -23
-12 -5 -7 -3 -8 6 -3 10 6 12 3 7 -14 -4 -18 -3 -20 8 -11 10 9 19 6 34 -9 24
-24 26 -37 9 -47 -6 -4 -8 -3 -4 4 3 6 1 14 -6 19 -21 13 -35 12 -35 -4 0 -7
6 -12 14 -9 7 3 13 -1 13 -9 0 -8 -8 -15 -17 -15 -12 -1 -5 -8 17 -21 19 -11
26 -17 14 -14 -13 3 -26 -1 -34 -10 -10 -12 -10 -15 1 -15 9 0 10 -3 4 -8 -16
-12 -17 -35 -1 -29 8 3 13 0 11 -6 -10 -38 -18 -57 -27 -57 -5 0 -6 -5 -2 -11
4 -8 13 -4 24 12 15 18 21 21 32 11 8 -6 18 -9 22 -5 4 4 4 0 0 -10 -3 -9 -10
-17 -16 -17 -5 0 -7 4 -4 9 3 5 0 11 -8 14 -10 4 -15 -4 -18 -29 -3 -25 0 -34
11 -34 15 0 7 -14 -10 -16 -5 -1 -13 -2 -19 -3 -12 -1 -13 -21 -1 -40 8 -13
12 -13 26 -1 15 12 19 12 31 -4 18 -26 8 -37 -22 -26 -32 12 -34 12 -34 -1 0
-5 4 -8 8 -5 4 2 14 1 22 -4 18 -11 21 -60 5 -60 -15 0 -15 32 0 42 5 4 0 6
-13 5 -13 -1 -22 -8 -22 -18 0 -10 -3 -19 -7 -22 -5 -2 -3 -2 4 -1 16 4 26
-13 13 -21 -5 -3 -10 -13 -10 -21 0 -12 2 -12 14 -2 8 7 12 18 9 23 -2 6 2 2
10 -7 8 -10 18 -14 22 -10 5 4 4 0 -1 -8 -4 -8 -9 -19 -10 -25 -1 -5 -5 -18
-9 -28 -6 -14 -4 -16 11 -10 17 6 18 5 4 -12 -8 -10 -15 -31 -16 -47 -1 -22 2
-27 16 -23 20 6 24 -22 6 -44 -9 -12 -8 -13 7 -8 15 6 16 4 7 -14 -6 -11 -15
-17 -21 -14 -5 4 -7 11 -4 16 4 5 1 9 -4 9 -6 0 -11 -3 -11 -8 0 -4 -10 -13
-21 -21 -20 -12 -21 -11 -15 6 6 14 4 15 -5 6 -13 -13 -3 -37 12 -27 6 3 8
-10 6 -33 -3 -25 -9 -38 -19 -37 -8 1 -15 -7 -15 -18 -2 -16 0 -17 13 -3 18
18 40 19 50 3 4 -7 3 -8 -4 -4 -7 4 -12 2 -12 -4 0 -6 -4 -9 -8 -6 -13 8 -12
-38 1 -46 9 -6 7 -12 -5 -22 -10 -7 -18 -16 -18 -18 0 -11 40 -16 47 -6 3 6 1
8 -5 4 -6 -3 -14 -1 -17 5 -5 7 0 9 13 7 12 -2 27 5 35 16 12 17 14 17 20 3 4
-10 2 -16 -6 -14 -7 1 -11 -4 -9 -11 1 -8 -2 -11 -7 -8 -5 3 -11 -1 -14 -8 -3
-8 -1 -17 6 -19 7 -2 0 -6 -15 -9 -18 -3 -28 -1 -28 7 0 6 -6 12 -14 12 -17 0
-15 -19 4 -42 12 -15 14 -15 22 -1 5 9 13 16 17 16 12 0 9 -34 -5 -47 -16 -16
-28 -17 -18 -1 4 7 3 8 -5 4 -6 -4 -9 -11 -6 -15 8 -13 44 -20 51 -10 4 6 11
6 19 -1 7 -5 59 -13 116 -18 l104 -7 -2 -55 c-1 -30 -2 -58 -2 -62 -1 -4 -22
-7 -48 -7 -87 0 -177 1 -226 2 -26 1 -47 -1 -47 -4 0 -6 -13 -7 -257 -8 -156
-1 -183 -3 -183 -16 0 -13 41 -15 303 -16 166 -1 383 -5 482 -8 153 -6 112 -8
-265 -11 -245 -2 -410 -6 -367 -7 51 -3 77 -8 77 -16 0 -7 4 -6 10 3 8 13 10
12 10 -2 0 -10 -6 -18 -12 -18 -7 0 0 -9 17 -20 16 -10 32 -16 35 -11 3 4 21
3 39 -4 23 -7 31 -14 22 -19 -9 -6 -9 -11 -1 -21 8 -10 7 -16 -7 -24 -16 -9
-16 -10 -1 -11 9 0 15 -7 14 -15 -3 -18 -16 -32 -16 -17 0 7 -5 12 -11 12 -5
0 -7 -5 -4 -10 4 -6 1 -17 -5 -25 -8 -9 -8 -15 -2 -15 6 0 13 6 15 13 4 9 6 9
6 -1 1 -7 5 -11 10 -8 5 3 11 -4 14 -16 4 -16 3 -18 -6 -9 -16 16 -36 14 -33
-5 3 -17 26 -35 37 -28 4 2 10 0 14 -6 3 -5 -1 -10 -9 -10 -10 0 -13 -8 -11
-30 2 -16 1 -29 -3 -29 -22 4 -32 -3 -32 -22 0 -12 4 -17 11 -14 16 11 6 -28
-11 -42 -12 -10 -12 -12 -1 -13 10 0 11 -3 2 -13 -8 -10 -7 -19 3 -33 13 -17
14 -16 11 16 -1 19 3 38 9 42 6 4 11 13 11 20 0 7 8 14 18 16 9 2 17 -2 17 -8
0 -6 -6 -8 -12 -5 -7 4 -2 -3 11 -14 25 -23 21 -27 -10 -11 -16 9 -19 7 -20
-15 -1 -14 -2 -31 -3 -37 -1 -7 3 -16 9 -20 5 -4 0 -8 -12 -8 -24 0 -31 -14
-13 -25 6 -3 10 -1 10 4 0 6 7 11 15 11 8 0 15 5 15 10 0 6 5 10 10 10 6 0 9
-5 8 -11 -2 -6 3 -14 11 -17 8 -3 11 0 7 7 -4 6 -3 11 2 11 6 0 12 -7 16 -15
4 -10 14 -14 31 -11 20 4 25 1 26 -17 0 -12 3 -17 5 -10 4 9 14 9 42 -1 20 -7
42 -11 49 -9 27 10 22 -20 -11 -53 -33 -33 -35 -38 -30 -87 7 -73 13 -97 23
-97 5 0 11 9 14 20 5 20 47 29 47 11 0 -5 -9 -7 -20 -4 -11 3 -20 0 -20 -6 0
-6 7 -11 16 -11 10 0 14 -6 11 -14 -3 -7 0 -19 6 -25 8 -8 6 -11 -9 -11 -14 0
-16 -2 -5 -9 10 -7 10 -10 1 -16 -7 -4 -16 -1 -21 6 -8 12 -11 12 -20 -1 -9
-13 -10 -12 -5 3 3 10 0 17 -8 17 -10 0 -12 -7 -8 -22 3 -12 1 -19 -5 -15 -5
3 -10 1 -10 -6 0 -7 13 -12 28 -12 15 0 25 3 22 8 -6 10 15 9 38 -3 16 -9 19
-7 19 10 0 17 6 20 43 20 34 -1 38 -3 24 -11 -9 -6 -27 -7 -40 -4 -22 7 -22 7
-2 -9 20 -15 20 -15 -3 -16 -13 0 -21 -4 -17 -10 3 -5 11 -7 18 -4 7 2 21 -2
31 -9 17 -13 16 -14 -15 -9 -19 2 -39 11 -46 19 -10 12 -18 13 -42 5 -17 -6
-31 -7 -31 -3 0 5 -11 6 -25 3 -20 -3 -24 -1 -19 11 3 8 1 18 -5 22 -7 4 -8 0
-4 -11 5 -13 3 -15 -8 -9 -11 6 -11 5 -2 -5 6 -7 9 -19 6 -26 -3 -8 0 -14 7
-14 6 0 8 5 5 10 -9 15 4 12 20 -4 8 -7 11 -16 8 -20 -4 -3 3 -6 15 -6 11 0
23 -4 26 -8 2 -4 -7 -8 -21 -7 -18 0 -27 -6 -29 -18 -1 -11 -5 -22 -8 -25 -9
-8 -2 30 7 45 10 17 -32 28 -47 13 -8 -10 -7 -12 5 -7 10 3 16 -1 16 -9 0 -8
-6 -13 -13 -10 -8 3 -20 -1 -28 -9 -7 -8 -16 -11 -20 -8 -3 4 -6 -5 -6 -20 0
-30 -18 -46 -31 -26 -7 11 -9 11 -9 1 0 -7 -4 -10 -10 -7 -6 3 -10 -4 -9 -17
0 -13 3 -17 6 -10 9 22 31 13 29 -12 0 -13 -3 -23 -6 -21 -3 2 -12 -1 -20 -6
-12 -8 -11 -13 10 -29 23 -17 25 -18 31 -2 3 9 5 22 4 27 -1 6 0 7 2 3 9 -16
22 -7 16 10 -8 22 1 13 17 -17 7 -13 7 -21 2 -17 -6 4 -15 -1 -19 -9 -10 -18
-63 -31 -63 -15 0 5 -8 10 -17 10 -15 0 -16 -2 -3 -10 20 -13 6 -24 -17 -12
-20 11 -39 -3 -38 -28 1 -8 -3 -22 -9 -30 -8 -13 -8 -13 4 -2 8 7 16 17 16 23
1 5 2 14 3 19 0 6 8 10 17 10 8 0 12 -4 9 -10 -4 -6 2 -7 17 -2 13 5 35 8 50
7 15 -1 25 2 22 7 -3 5 7 7 23 5 15 -2 37 0 48 5 18 8 19 8 3 -5 -10 -8 -15
-17 -11 -21 4 -4 -1 -4 -11 0 -14 5 -17 4 -12 -5 6 -9 1 -12 -20 -9 -17 2 -29
-2 -32 -11 -3 -10 2 -13 20 -9 17 3 25 0 25 -9 0 -9 -7 -13 -19 -10 -14 4 -18
1 -16 -11 2 -9 14 -19 28 -23 23 -6 23 -7 3 -8 -19 -1 -21 -4 -13 -31 5 -17 5
-30 0 -30 -5 0 -11 10 -13 23 -3 16 -5 13 -6 -10 -1 -23 3 -33 14 -33 8 0 15
-7 15 -16 0 -8 -4 -13 -9 -9 -12 7 -32 -27 -29 -52 0 -10 0 -27 -1 -38 -1 -17
-3 -18 -11 -5 -8 11 -9 7 -4 -15 8 -37 14 -45 14 -19 0 10 5 26 10 34 6 10 8
3 3 -22 -5 -34 -3 -39 21 -48 28 -10 34 -25 13 -33 -8 -3 -13 -16 -11 -29 1
-12 3 -28 3 -35 1 -6 13 -16 29 -22 16 -6 19 -9 7 -8 -11 2 -26 -6 -33 -18
-12 -19 -13 -18 -7 8 3 16 1 27 -5 27 -6 0 -8 11 -6 24 3 16 -1 27 -11 30 -20
8 -23 8 -23 -5 0 -5 4 -8 9 -4 6 3 9 -7 8 -21 -2 -26 -27 -48 -27 -24 0 6 5 8
12 4 7 -4 8 -3 4 4 -16 26 -28 11 -22 -25 l7 -38 -16 30 c-25 46 -47 67 -67
62 -10 -3 -16 -1 -12 4 3 5 14 9 25 9 10 0 19 4 19 9 0 4 -12 6 -27 4 -19 -3
-24 -2 -15 4 8 7 1 9 -23 9 -38 -1 -49 -15 -12 -17 17 -1 18 -2 4 -6 -10 -3
-24 1 -32 7 -10 8 -19 9 -32 1 -17 -10 -17 -10 2 -11 11 -1 14 -4 7 -7 -6 -2
-10 -10 -6 -16 3 -7 -3 -2 -14 10 -16 18 -21 20 -25 9 -3 -8 -2 -17 4 -20 5
-2 4 -3 -3 -2 -13 3 -12 35 2 49 4 5 32 15 61 22 l54 13 -55 -3 c-30 -2 -56
-8 -58 -14 -5 -14 -32 -15 -32 -1 0 6 -5 10 -12 10 -6 0 -3 -9 7 -20 16 -18
16 -20 2 -20 -10 0 -17 6 -17 13 0 8 -4 7 -11 -3 -9 -12 -10 -11 -6 6 2 12 0
28 -5 35 -8 11 -9 10 -4 -3 7 -23 0 -23 -26 2 -18 16 -20 27 -15 70 5 43 4 50
-11 50 -15 0 -15 -2 -2 -10 8 -5 10 -10 4 -10 -18 0 -37 28 -30 46 5 13 3 14
-7 6 -8 -7 -26 -8 -49 -3 -29 7 -35 6 -31 -5 3 -8 1 -14 -3 -14 -19 0 -31 17
-38 50 -3 20 -15 43 -26 53 -11 9 -20 26 -20 38 0 16 -4 19 -17 15 -11 -5 -23
1 -35 16 -17 22 -17 22 -12 2 10 -37 -12 -64 -44 -58 -23 5 -32 1 -46 -20 -9
-15 -22 -24 -28 -20 -8 5 -9 1 -5 -10 4 -10 3 -15 -3 -11 -6 3 -10 1 -10 -4 0
-6 -3 -10 -7 -10 -26 4 -42 -4 -48 -22 -4 -11 -9 -18 -12 -15 -3 2 -13 -3 -22
-12 -20 -19 -36 -56 -21 -47 6 3 10 1 10 -4 0 -17 -28 -13 -40 7 -10 16 -10
16 -8 -2 4 -26 -19 -32 -27 -7 -4 13 -11 18 -22 14 -11 -4 -14 -3 -9 6 6 8 2
11 -10 9 -13 -2 -20 4 -22 19 -2 15 -10 23 -23 23 -23 0 -24 10 -4 36 18 23
19 34 3 34 -6 0 -8 -3 -5 -7 4 -3 2 -12 -5 -20 -9 -11 -14 -11 -31 4 -11 10
-17 13 -14 6 4 -6 3 -14 -3 -18 -5 -3 -10 1 -10 10 0 11 -6 14 -25 9 -31 -8
-32 4 -5 56 25 49 19 52 -9 6 -12 -19 -28 -37 -37 -40 -8 -3 -13 -2 -10 2 2 4
1 14 -5 22 -7 13 -9 12 -9 -2 0 -19 -15 -24 -25 -8 -8 13 -35 1 -35 -16 0 -16
-9 -18 -29 -5 -9 6 -10 11 -2 15 18 11 13 28 -5 18 -9 -5 -26 -7 -39 -4 l-24
4 23 37 c35 57 38 61 32 61 -3 0 -14 -10 -26 -22 -11 -12 -20 -18 -20 -13 0 5
-7 -1 -16 -13 -9 -13 -13 -31 -9 -45 5 -16 4 -18 -3 -8 -16 23 -42 5 -42 -29
0 -16 -4 -30 -10 -30 -5 0 -10 6 -10 14 0 8 -7 16 -15 20 -12 4 -13 11 -5 32
10 25 9 26 -7 13 -15 -12 -16 -12 -10 4 4 10 7 21 7 23 0 3 5 2 10 -1 6 -3 10
2 10 12 -1 15 -5 13 -25 -9 -13 -16 -28 -28 -33 -28 -13 0 -42 68 -36 85 4 8
1 15 -5 15 -6 0 -11 -4 -11 -9 0 -5 -12 -11 -26 -14 -19 -3 -24 -1 -20 10 3 8
6 17 6 20 0 3 7 0 15 -7 14 -11 14 -10 5 15 -6 16 -8 35 -5 43 3 10 0 12 -10
8 -8 -3 -15 0 -15 6 0 6 -3 8 -7 5 -3 -4 -11 -3 -17 3 -9 6 -12 0 -12 -23 0
-18 5 -35 11 -39 12 -9 -7 -44 -22 -41 -5 1 -10 -11 -10 -27 0 -26 3 -28 16
-17 14 10 14 10 3 -5 -21 -27 -45 -15 -60 32 -10 29 -17 38 -23 29 -4 -8 -4
-16 2 -20 6 -3 4 -11 -5 -19 -17 -14 -22 -7 -36 54 -6 24 -8 26 -9 8 -1 -15
-5 -21 -13 -16 -7 5 -9 0 -6 -14 5 -17 -7 -32 -27 -32 -7 0 1 36 10 42 7 5 6
8 -1 8 -5 0 -19 -7 -30 -15 -16 -13 -16 -14 -1 -9 22 8 22 -1 -3 -26 -19 -19
-19 -19 -37 10 -9 17 -20 30 -24 30 -4 0 -10 7 -13 16 -3 8 -2 12 4 9 5 -3 22
5 37 19 15 15 31 26 35 26 5 0 8 5 8 11 0 5 -5 7 -11 3 -8 -4 -9 1 -4 16 6 19
4 21 -17 15 -16 -4 -19 -4 -9 3 12 8 10 15 -8 38 -14 18 -20 36 -17 50 4 13 0
27 -9 34 -8 7 -15 17 -15 22 0 5 9 0 21 -11 13 -12 19 -26 15 -38 -3 -10 -1
-25 4 -33 7 -11 10 -7 10 19 0 33 -41 97 -54 84 -3 -4 -6 0 -6 8 0 9 -7 24
-16 35 -8 10 -12 13 -8 5 3 -7 1 -17 -6 -21 -7 -4 -16 -25 -19 -46 l-7 -39
-31 43 c-23 31 -33 58 -38 102 -5 41 -11 58 -18 53 -23 -14 -57 -6 -87 20 -37
33 -59 35 -62 5 0 -13 -2 -27 -3 -33 -2 -5 -3 -16 -4 -23 -1 -17 -39 6 -45 28
-2 8 -4 3 -5 -12 -1 -19 -7 -28 -18 -29 -47 -4 -59 -3 -65 6 -4 6 -8 2 -8 -8
0 -13 -6 -17 -22 -15 -23 3 -23 6 -30 178 -3 96 -7 276 -7 400 -3 698 -20
2317 -25 2330 -2 8 -8 67 -11 130 -9 145 -10 154 -18 167 -4 6 0 14 9 17 8 3
12 11 8 17 -4 8 -9 7 -15 -2 -7 -11 -9 -11 -9 2 0 9 -11 24 -25 33 -24 16 -48
56 -50 82 0 6 -5 18 -11 25 -6 8 -11 29 -12 48 -2 19 -6 39 -9 45 -11 17 -23
125 -26 239 -1 26 -4 47 -8 47 -3 0 -6 41 -5 90 0 50 -1 90 -4 90 -8 0 -10 39
-2 44 4 2 6 48 4 103 -1 54 -2 107 -2 118 0 11 -5 47 -11 80 -11 59 -29 94
-81 150 -30 32 -31 43 -28 177 l2 77 -29 3 -28 4 25 11 c19 9 -451 12 -1842
12 l-1868 1 0 -3239z m6615 2819 c-3 -5 -10 -10 -16 -10 -5 0 -9 5 -9 10 0 6
7 10 16 10 8 0 12 -4 9 -10z m-9 -59 c0 -11 -4 -17 -8 -15 -4 3 -8 12 -8 20 0
8 4 14 8 14 4 0 8 -9 8 -19z m4 -51 c0 -5 -5 -10 -11 -10 -5 0 -7 5 -4 10 3 6
8 10 11 10 2 0 4 -4 4 -10z m151 -180 c0 -73 -3 -135 -6 -138 -3 -3 -5 59 -5
138 0 79 2 141 5 138 3 -3 6 -65 6 -138z m-183 -145 c-3 -3 -9 2 -12 12 -6 14
-5 15 5 6 7 -7 10 -15 7 -18z m-64 -454 c4 -5 -3 -7 -14 -4 -23 6 -26 13 -6
13 8 0 17 -4 20 -9z m-2 -35 c7 4 8 2 4 -5 -9 -13 -26 -5 -25 12 0 9 2 8 6 -1
2 -6 10 -9 15 -6z m565 -103 c-3 -10 -5 -4 -5 12 0 17 2 24 5 18 2 -7 2 -21 0
-30z m0 -55 c-3 -7 -5 -2 -5 12 0 14 2 19 5 13 2 -7 2 -19 0 -25z m-577 -288
c0 -5 -5 -10 -11 -10 -5 0 -7 5 -4 10 3 6 8 10 11 10 2 0 4 -4 4 -10z m20
-170 c0 -5 -4 -10 -10 -10 -5 0 -10 5 -10 10 0 6 5 10 10 10 6 0 10 -4 10 -10z
m-11 -132 c-21 -8 -21 -9 -3 -31 19 -21 19 -21 0 -7 -18 14 -19 13 -13 -2 3
-10 3 -18 -2 -18 -15 0 -21 13 -10 26 7 8 7 14 -1 19 -16 10 -12 28 6 21 12
-5 14 -1 9 15 -7 20 -6 20 14 2 l21 -18 -21 -7z m37 -266 c-4 -3 -11 0 -16 8
-15 24 -11 33 6 15 9 -9 13 -19 10 -23z m14 -26 c0 -3 -4 -8 -10 -11 -5 -3
-10 -1 -10 4 0 6 5 11 10 11 6 0 10 -2 10 -4z m50 -101 c0 -12 -19 -12 -23 0
-4 9 -1 12 9 8 7 -3 14 -7 14 -8z m-35 -103 c-3 -3 -11 0 -18 7 -9 10 -8 11 6
5 10 -3 15 -9 12 -12z m18 -172 c3 -11 1 -18 -4 -14 -5 3 -9 12 -9 20 0 20 7
17 13 -6z m17 -138 c0 -11 -11 -24 -25 -30 -31 -14 -35 -15 -35 -3 0 5 11 12
25 15 14 4 25 13 25 21 0 8 2 15 5 15 3 0 5 -8 5 -18z m7 -164 c-3 -8 -6 -5
-6 6 -1 11 2 17 5 13 3 -3 4 -12 1 -19z m-5 -70 c-8 -8 -9 -4 -5 13 4 13 8 18
11 10 2 -7 -1 -18 -6 -23z m12 -76 c2 -4 -5 -9 -17 -9 -17 -2 -19 0 -7 7 18
12 18 12 24 2z m728 -114 c-8 -8 -9 -4 -5 13 4 13 8 18 11 10 2 -7 -1 -18 -6
-23z m-757 -25 c1 -15 -4 -23 -14 -23 -14 0 -14 -2 -1 -10 13 -8 12 -10 -2
-10 -20 0 -24 15 -8 25 7 4 6 13 -1 26 -9 18 -8 20 7 17 10 -2 18 -13 19 -25z
m765 -58 c0 -36 -4 -65 -10 -65 -5 0 -7 7 -4 15 4 8 1 21 -5 28 -7 9 -7 24 0
50 5 20 12 37 14 37 3 0 5 -29 5 -65z m-745 -5 c3 -6 -1 -7 -9 -4 -18 7 -21
14 -7 14 6 0 13 -4 16 -10z m-8 -55 c0 -8 -7 -17 -14 -19 -8 -3 -11 -1 -8 4 3
6 -1 10 -10 10 -22 0 -11 15 13 17 10 1 19 -5 19 -12z m753 -45 c0 -5 -5 -10
-11 -10 -5 0 -7 5 -4 10 3 6 8 10 11 10 2 0 4 -4 4 -10z m-706 -101 c-4 -7
-44 0 -44 7 0 2 11 3 24 2 14 -1 23 -5 20 -9z m-216 -267 c-22 -4 -24 -22 -2
-22 8 0 13 -4 9 -10 -4 -6 -15 -6 -32 1 -15 6 -38 8 -50 4 -16 -4 -23 -1 -23
9 0 10 6 13 15 10 8 -4 15 -1 15 6 0 7 7 4 17 -6 14 -13 18 -14 22 -3 6 19 23
29 36 21 6 -4 3 -8 -7 -10z m32 -52 c0 -5 -5 -10 -11 -10 -5 0 -7 5 -4 10 3 6
8 10 11 10 2 0 4 -4 4 -10z m847 -22 c-3 -8 -6 -5 -6 6 -1 11 2 17 5 13 3 -3
4 -12 1 -19z m-852 -18 c3 -5 1 -10 -4 -10 -6 0 -11 5 -11 10 0 6 2 10 4 10 3
0 8 -4 11 -10z m52 -21 c2 -16 -1 -19 -9 -11 -5 5 -7 15 -4 21 10 15 12 14 13
-10z m590 -124 c0 -11 -4 -12 -14 -4 -7 6 -13 13 -13 15 0 2 6 4 13 4 8 0 14
-7 14 -15z m-7 -35 c9 -16 8 -18 -5 -14 -8 3 -13 10 -10 14 3 5 -1 11 -7 13
-10 4 -10 6 -1 6 7 1 17 -8 23 -19z m-615 -10 c3 -5 1 -10 -4 -10 -6 0 -11 5
-11 10 0 6 2 10 4 10 3 0 8 -4 11 -10z m-20 -60 c-3 -5 -12 -7 -20 -3 -21 7
-19 13 6 13 11 0 18 -4 14 -10z m50 -28 c-3 -3 -11 0 -18 7 -9 10 -8 11 6 5
10 -3 15 -9 12 -12z m15 -48 c0 -2 -7 -4 -15 -4 -8 0 -15 4 -15 10 0 5 7 7 15
4 8 -4 15 -8 15 -10z m569 3 c8 -10 7 -14 -2 -14 -8 0 -14 6 -14 14 0 7 1 13
2 13 2 0 8 -6 14 -13z m-604 -37 c3 -5 -1 -10 -9 -10 -8 0 -18 5 -21 10 -3 6
1 10 9 10 8 0 18 -4 21 -10z m42 -4 c-4 -9 2 -17 14 -21 11 -4 18 -9 16 -12
-11 -10 -46 18 -41 32 4 8 8 15 11 15 3 0 3 -7 0 -14z m60 -8 c-3 -8 -6 -5 -6
6 -1 11 2 17 5 13 3 -3 4 -12 1 -19z m648 -17 c-9 -8 -36 -10 -30 -2 2 4 11 8
20 8 8 0 13 -3 10 -6z m-429 -158 c-1 -72 -5 -135 -9 -139 -4 -5 -7 61 -6 146
0 85 4 148 9 140 4 -8 7 -74 6 -147z m-196 143 c0 -9 -30 -14 -35 -6 -4 6 3
10 14 10 12 0 21 -2 21 -4z m530 -21 c0 -12 -19 -12 -23 0 -4 9 -1 12 9 8 7
-3 14 -7 14 -8z m-473 -1 c-3 -3 -12 -4 -19 -1 -8 3 -5 6 6 6 11 1 17 -2 13
-5z m50 0 c-3 -3 -12 -4 -19 -1 -8 3 -5 6 6 6 11 1 17 -2 13 -5z m553 -4 c0
-5 -5 -10 -11 -10 -5 0 -7 5 -4 10 3 6 8 10 11 10 2 0 4 -4 4 -10z m-138 -29
c3 8 4 -3 4 -23 -1 -41 -16 -54 -16 -14 0 14 -4 28 -10 31 -5 3 -10 0 -10 -8
0 -8 -6 -17 -13 -20 -8 -3 -14 1 -14 9 0 7 4 11 8 8 5 -3 11 7 15 22 l7 27 12
-23 c9 -17 14 -19 17 -9z m65 6 c7 -5 22 -7 33 -4 26 7 26 1 0 -13 -14 -8 -24
-8 -33 0 -6 6 -21 17 -32 25 l-20 15 20 -7 c11 -3 26 -10 32 -16z m-467 -35
c0 -7 -5 -10 -10 -7 -6 4 -8 11 -5 16 4 5 1 9 -4 9 -6 0 -11 8 -11 17 0 15 2
14 15 -3 8 -10 15 -25 15 -32z m463 -6 c9 1 15 -2 11 -7 -3 -5 2 -9 11 -9 8 0
18 -7 21 -15 4 -8 10 -12 15 -9 17 10 9 -3 -13 -22 -17 -16 -20 -16 -15 -3 10
29 -12 39 -50 22 -28 -11 -34 -11 -31 -1 3 7 10 14 16 14 7 1 17 2 22 3 6 0
10 5 10 10 0 6 -9 8 -19 6 -14 -3 -18 1 -14 12 3 8 9 10 12 5 3 -5 14 -8 24
-6z m-246 -12 c-3 -3 -12 -4 -19 -1 -8 3 -5 6 6 6 11 1 17 -2 13 -5z m-280
-26 c-3 -8 -6 -5 -6 6 -1 11 2 17 5 13 3 -3 4 -12 1 -19z m443 3 c0 -3 -8 -11
-18 -17 -15 -10 -18 -8 -18 11 0 16 5 21 18 17 10 -2 18 -7 18 -11z m188 6 c8
-10 6 -13 -11 -14 -12 0 -16 1 -9 4 6 3 10 9 6 14 -8 14 2 11 14 -4z m-448
-17 c0 -5 -7 -7 -15 -4 -8 4 -15 8 -15 10 0 2 7 4 15 4 8 0 15 -4 15 -10z
m314 -13 c20 3 36 1 41 -7 4 -7 1 -10 -11 -8 -13 2 -19 -3 -17 -15 0 -11 -4
-16 -12 -13 -7 2 -18 -1 -24 -7 -9 -9 -14 -9 -20 2 -6 9 -11 10 -15 2 -4 -6
-3 -11 3 -11 6 0 8 -7 5 -15 -5 -11 -9 -12 -19 -2 -10 10 -10 15 0 31 8 10 11
25 8 34 -4 10 -2 13 5 8 7 -4 12 0 13 11 1 16 2 16 6 1 3 -13 12 -15 37 -11z
m-444 -44 c0 -21 -3 -24 -9 -14 -5 8 -7 20 -4 28 8 21 13 15 13 -14z m136 4
c4 -4 -2 -7 -14 -7 -12 0 -22 4 -22 9 0 10 26 9 36 -2z m-206 -17 c0 -5 -2
-10 -4 -10 -3 0 -8 5 -11 10 -3 6 -1 10 4 10 6 0 11 -4 11 -10z m557 -11 c3
-10 12 -19 20 -19 8 0 11 5 7 13 -4 7 -2 7 7 -2 11 -10 11 -15 1 -18 -6 -3
-10 -8 -7 -13 3 -4 -4 -6 -15 -3 -14 4 -20 0 -20 -11 0 -9 -4 -16 -9 -16 -5 0
-16 -2 -24 -5 -9 -4 -13 1 -12 14 1 11 4 24 8 27 4 4 -1 13 -11 20 -11 9 -13
13 -4 14 7 0 11 3 9 8 -3 4 6 8 20 9 17 1 27 -5 30 -18z m-364 -9 c-3 -12 -8
-19 -11 -16 -5 6 5 36 12 36 2 0 2 -9 -1 -20z m278 -23 c-10 -9 -11 -8 -5 6 3
10 9 15 12 12 3 -3 0 -11 -7 -18z m-374 -22 c0 -8 -9 -15 -19 -15 -10 0 -18 5
-18 11 0 5 4 8 9 4 5 -3 12 -1 16 5 9 14 12 13 12 -5z m260 -8 c2 -2 -25 -5
-59 -5 -34 -1 -64 -6 -66 -11 -2 -6 -11 -11 -20 -11 -15 0 -15 2 -2 10 8 5 11
10 5 11 -5 1 4 5 20 9 28 7 114 5 122 -3z m113 4 c0 -14 -29 -21 -36 -9 -4 6
-3 8 4 4 6 -3 13 -2 17 4 8 12 15 13 15 1z m-2726 -37 c3 -8 2 -12 -4 -9 -6 3
-10 10 -10 16 0 14 7 11 14 -7z m2726 10 c0 -3 -7 -12 -15 -20 -12 -13 -15
-13 -15 -1 0 7 3 17 7 20 8 8 23 9 23 1z m-181 -30 c-14 -18 -24 -11 -15 11 3
9 11 13 16 10 8 -5 7 -11 -1 -21z m-199 6 c0 -5 -5 -10 -11 -10 -5 0 -7 5 -4
10 3 6 8 10 11 10 2 0 4 -4 4 -10z m94 -9 c-12 -9 -11 -80 1 -82 6 -1 16 9 22
22 12 23 13 23 13 3 0 -19 -23 -39 -41 -36 -3 1 -6 -12 -7 -27 0 -16 5 -28 11
-28 7 0 23 -1 37 -2 20 -1 22 -3 10 -11 -12 -8 -12 -10 -1 -10 8 0 4 -8 -10
-20 -16 -12 -19 -19 -10 -20 8 0 12 -3 9 -6 -4 -3 -15 -1 -26 5 -18 10 -20 8
-17 -23 2 -18 -1 -39 -5 -47 -5 -8 -4 -19 2 -26 7 -8 7 -13 0 -13 -14 0 -35
27 -23 32 9 3 14 85 11 168 -1 35 -1 35 -17 13 -16 -23 -43 -31 -43 -13 0 5 7
7 15 4 8 -4 15 -1 15 4 0 6 6 17 13 24 19 19 29 75 14 82 -9 3 -8 7 3 15 15
10 38 3 24 -8z m46 9 c0 -5 -5 -10 -11 -10 -5 0 -7 5 -4 10 3 6 8 10 11 10 2
0 4 -4 4 -10z m272 1 c-7 -4 -14 -17 -14 -27 -1 -14 -9 -20 -24 -20 -13 0 -22
5 -21 10 2 12 47 44 62 45 6 0 4 -3 -3 -8z m68 -5 c0 -8 -4 -18 -10 -21 -5 -3
-10 -18 -10 -32 0 -25 0 -26 -20 -8 -11 10 -20 22 -20 27 0 4 9 8 20 8 13 0
20 7 20 20 0 11 5 20 10 20 6 0 10 -6 10 -14z m-425 -46 c-3 -5 -11 -10 -16
-10 -6 0 -7 5 -4 10 3 6 11 10 16 10 6 0 7 -4 4 -10z m435 0 c0 -5 -2 -10 -4
-10 -3 0 -8 5 -11 10 -3 6 -1 10 4 10 6 0 11 -4 11 -10z m-389 -23 c-10 -9
-11 -8 -5 6 3 10 9 15 12 12 3 -3 0 -11 -7 -18z m297 -5 c-9 -10 -6 -12 15 -8
24 4 25 3 14 -15 -14 -22 -23 -24 -31 -6 -3 6 -4 3 -1 -8 4 -16 -1 -20 -20
-21 -14 -1 -23 2 -20 6 3 5 -1 11 -7 13 -10 4 -10 8 2 16 8 5 17 8 21 5 4 -2
5 4 2 14 -3 13 2 18 16 18 15 0 17 -3 9 -14z m-451 -34 c-3 -8 -6 -5 -6 6 -1
11 2 17 5 13 3 -3 4 -12 1 -19z m33 2 c0 -5 -5 -10 -11 -10 -5 0 -7 5 -4 10 3
6 8 10 11 10 2 0 4 -4 4 -10z m175 0 c3 -6 -1 -7 -10 -4 -11 4 -14 2 -9 -9 3
-8 0 -18 -7 -23 -8 -4 -10 -3 -5 4 4 7 2 12 -5 12 -8 0 -8 4 1 15 14 17 26 19
35 5z m30 -30 c-3 -5 -10 -10 -16 -10 -5 0 -9 5 -9 10 0 6 7 10 16 10 8 0 12
-4 9 -10z m-350 -30 c3 -5 1 -10 -4 -10 -6 0 -11 5 -11 10 0 6 2 10 4 10 3 0
8 -4 11 -10z m165 6 c0 -3 -4 -8 -10 -11 -5 -3 -10 -1 -10 4 0 6 5 11 10 11 6
0 10 -2 10 -4z m215 -6 c3 -5 2 -10 -4 -10 -5 0 -13 5 -16 10 -3 6 -2 10 4 10
5 0 13 -4 16 -10z m-305 -20 c0 -5 -2 -10 -4 -10 -3 0 -8 5 -11 10 -3 6 -1 10
4 10 6 0 11 -4 11 -10z m-93 -28 c9 -15 8 -19 -2 -19 -8 0 -16 9 -18 19 -3 10
-2 18 2 18 3 0 11 -8 18 -18z m350 -4 c-3 -8 -6 -5 -6 6 -1 11 2 17 5 13 3 -3
4 -12 1 -19z m53 7 c0 -12 -19 -12 -23 0 -4 9 -1 12 9 8 7 -3 14 -7 14 -8z
m-440 -20 c11 -13 10 -14 -4 -9 -9 3 -16 10 -16 15 0 13 6 11 20 -6z m240 -10
c0 -12 -19 -12 -23 0 -4 9 -1 12 9 8 7 -3 14 -7 14 -8z m136 -6 c4 -7 1 -10
-7 -7 -8 3 -24 -7 -37 -21 -18 -21 -21 -22 -15 -6 15 41 44 58 59 34z m50 -4
c-3 -8 0 -15 6 -15 6 0 9 -3 5 -6 -10 -11 -26 6 -20 21 3 8 7 15 10 15 3 0 3
-7 -1 -15z m-351 -15 c3 -5 1 -10 -4 -10 -6 0 -11 5 -11 10 0 6 2 10 4 10 3 0
8 -4 11 -10z m60 -22 c6 -4 2 -8 -7 -8 -10 0 -18 7 -18 17 0 9 3 12 8 7 4 -5
12 -12 17 -16z m69 13 c3 -5 -1 -11 -9 -14 -9 -4 -12 -1 -8 9 6 16 10 17 17 5z
m73 3 c-3 -3 -12 -4 -19 -1 -8 3 -5 6 6 6 11 1 17 -2 13 -5z m118 -14 c3 -5 1
-10 -4 -10 -6 0 -11 5 -11 10 0 6 2 10 4 10 3 0 8 -4 11 -10z m-334 -13 c-6
-8 -8 -17 -4 -20 3 -4 1 -7 -5 -7 -16 0 -15 27 1 33 19 8 20 8 8 -6z m195 -13
c19 -15 18 -15 -3 -11 -12 3 -24 0 -27 -7 -2 -6 -3 -1 -3 12 1 26 7 27 33 6z
m175 2 c5 3 9 0 9 -6 0 -7 -7 -9 -16 -6 -9 3 -18 6 -20 6 -3 0 -2 5 2 12 6 9
9 9 12 0 2 -7 8 -10 13 -6z m39 -8 c0 -19 -2 -20 -10 -8 -13 19 -13 30 0 30 6
0 10 -10 10 -22z m-120 2 c0 -5 -5 -10 -11 -10 -5 0 -7 5 -4 10 3 6 8 10 11
10 2 0 4 -4 4 -10z m40 2 c0 -4 -6 -14 -12 -21 -11 -11 -10 -13 0 -7 7 4 15 1
18 -8 3 -9 14 -16 23 -16 10 0 17 -9 18 -21 2 -20 1 -20 -16 -5 -23 21 -30 20
-24 -4 3 -12 0 -20 -7 -20 -7 0 -10 6 -7 14 3 7 -1 26 -9 42 -15 29 -12 54 6
54 5 0 10 -4 10 -8z m-202 -27 c-3 -3 -9 2 -12 12 -6 14 -5 15 5 6 7 -7 10
-15 7 -18z m262 1 c0 -2 -7 -6 -15 -10 -8 -3 -15 -1 -15 4 0 6 7 10 15 10 8 0
15 -2 15 -4z m-366 -52 c3 -8 2 -12 -4 -9 -6 3 -10 10 -10 16 0 14 7 11 14 -7z
m-1877 -16 c-3 -8 -6 -5 -6 6 -1 11 2 17 5 13 3 -3 4 -12 1 -19z m223 -8 c0
-5 -7 -10 -15 -10 -8 0 -15 5 -15 10 0 6 7 10 15 10 8 0 15 -4 15 -10z m1677
-22 c-3 -7 -5 -2 -5 12 0 14 2 19 5 13 2 -7 2 -19 0 -25z m-1904 13 c4 -1 7
-8 7 -17 0 -8 -4 -13 -9 -10 -5 4 -7 -2 -4 -13 6 -22 -23 -36 -31 -15 -3 8
-12 14 -19 14 -9 0 -14 10 -14 24 0 23 10 26 70 17z m52 -21 c3 -5 1 -10 -4
-10 -6 0 -11 5 -11 10 0 6 2 10 4 10 3 0 8 -4 11 -10z m368 -5 c-3 -9 -8 -14
-10 -11 -3 3 -2 9 2 15 9 16 15 13 8 -4z m2132 -5 c-3 -5 -1 -10 5 -10 6 0 8
-5 4 -11 -4 -8 -9 -7 -15 2 -7 12 -3 29 7 29 3 0 2 -4 -1 -10z m-2332 -20 c-3
-11 -9 -17 -15 -14 -5 3 -4 12 3 20 16 19 18 18 12 -6z m1669 -33 c-24 -26
-29 -42 -9 -31 6 4 9 4 5 0 -3 -4 -10 -8 -15 -8 -4 0 -15 -5 -23 -11 -13 -11
-13 -10 0 8 22 31 53 65 58 65 3 0 -4 -10 -16 -23z m-85 -98 c0 -24 -2 -27
-10 -14 -5 9 -6 23 -3 31 8 22 13 17 13 -17z m50 11 c-3 -10 -2 -21 2 -23 3
-2 0 -2 -8 0 -8 2 -11 -2 -7 -12 3 -9 0 -15 -9 -15 -19 0 -19 6 2 41 20 34 27
37 20 9z m-927 -30 c0 -5 -4 -10 -10 -10 -5 0 -10 5 -10 10 0 6 5 10 10 10 6
0 10 -4 10 -10z m444 -5 c-4 -8 -11 -12 -16 -9 -6 4 -5 10 3 15 19 12 19 11
13 -6z m491 -45 c2 -4 -6 -5 -20 -3 -21 4 -23 2 -18 -18 4 -19 3 -21 -6 -9 -9
12 -11 13 -11 1 0 -8 -2 -12 -5 -9 -4 3 -3 17 0 30 5 20 11 24 31 20 13 -2 26
-8 29 -12z m32 -82 c-2 -13 -4 -5 -4 17 -1 22 1 32 4 23 2 -10 2 -28 0 -40z
m-2332 -654 c-85 -36 -96 -39 -90 -22 10 25 59 47 105 47 l45 1 -60 -26z
m3495 -44 c0 -5 -4 -10 -10 -10 -5 0 -10 5 -10 10 0 6 5 10 10 10 6 0 10 -4
10 -10z m65 -18 c-3 -3 -11 0 -18 7 -9 10 -8 11 6 5 10 -3 15 -9 12 -12z
m-3640 -23 c-4 -5 -1 -9 6 -9 7 0 10 -1 8 -3 -2 -2 -33 0 -69 3 l-65 7 58 1
c41 2 56 5 51 14 -4 7 -3 8 5 4 6 -4 9 -12 6 -17z m-145 1 c8 -5 11 -10 5 -10
-5 0 -17 5 -25 10 -8 5 -10 10 -5 10 6 0 17 -5 25 -10z m267 4 c-3 -3 -12 -4
-19 -1 -8 3 -5 6 6 6 11 1 17 -2 13 -5z m3650 0 c-3 -3 -12 -4 -19 -1 -8 3 -5
6 6 6 11 1 17 -2 13 -5z m56 -11 c-7 -2 -21 -2 -30 0 -10 3 -4 5 12 5 17 0 24
-2 18 -5z m-2588 -61 c-3 -3 -11 0 -18 7 -9 10 -8 11 6 5 10 -3 15 -9 12 -12z
m290 -42 c3 -6 -1 -7 -9 -4 -18 7 -21 14 -7 14 6 0 13 -4 16 -10z m632 -95
c-15 -16 -19 -13 -11 9 3 9 10 13 15 10 5 -3 3 -11 -4 -19z m203 11 c0 -2 -9
-6 -20 -9 -11 -3 -20 -1 -20 4 0 5 9 9 20 9 11 0 20 -2 20 -4z m680 -41 c0
-35 -6 -40 -32 -30 -22 9 -11 65 13 65 15 0 19 -7 19 -35z m-386 -1 c3 -8 2
-12 -4 -9 -6 3 -10 10 -10 16 0 14 7 11 14 -7z m1786 -139 c188 -11 245 -19
345 -44 119 -30 285 -64 380 -77 61 -8 95 -20 95 -33 0 -13 -80 -5 -265 26
-170 28 -181 29 -250 38 -27 4 -81 15 -120 25 -38 10 -110 24 -160 30 -49 6
-92 15 -95 20 -3 4 -48 11 -101 15 -53 4 -112 11 -130 16 -26 6 -22 7 21 3 30
-3 156 -11 280 -19z m-6305 -104 c-8 -14 -35 -14 -35 -1 0 5 7 7 15 4 8 -4 15
-1 15 7 0 7 3 10 6 6 3 -3 3 -10 -1 -16z"/>
<path d="M7179 5636 c6 -7 9 -21 5 -30 -3 -9 -1 -16 5 -16 12 0 12 1 16 38 2
16 -3 22 -18 22 -15 0 -17 -3 -8 -14z"/>
<path d="M6833 5364 c-6 -17 15 -37 29 -28 13 9 9 32 -7 38 -9 3 -18 -1 -22
-10z"/>
<path d="M7120 5509 c0 -5 5 -7 10 -4 6 3 10 8 10 11 0 2 -4 4 -10 4 -5 0 -10
-5 -10 -11z"/>
<path d="M4695 5080 c3 -5 8 -10 11 -10 2 0 4 5 4 10 0 6 -5 10 -11 10 -5 0
-7 -4 -4 -10z"/>
<path d="M6660 10231 c0 -5 7 -14 15 -21 16 -14 18 -10 9 14 -6 17 -24 22 -24
7z"/>
<path d="M7270 10234 c0 -13 61 -57 81 -59 3 0 14 -8 24 -18 13 -14 20 -15 25
-6 5 8 10 5 14 -9 4 -11 14 -23 22 -26 10 -4 13 -2 8 7 -9 15 33 -19 62 -50
23 -24 36 -21 27 5 -3 10 4 5 16 -10 13 -17 32 -28 47 -28 13 0 24 -5 24 -11
0 -6 7 -8 16 -5 10 4 13 2 8 -6 -5 -7 -2 -9 8 -5 9 3 24 -2 34 -11 11 -9 33
-18 49 -20 17 -2 34 -10 38 -18 4 -8 13 -14 18 -14 6 0 8 4 5 9 -4 5 3 7 13 4
11 -3 22 -11 25 -19 3 -8 13 -14 21 -14 9 0 13 -5 9 -11 -4 -8 0 -9 15 -4 15
4 21 3 19 -7 -2 -8 7 -13 25 -13 18 1 27 -4 27 -15 0 -11 3 -12 8 -3 4 7 18
11 30 10 25 -1 25 -2 12 -27 -10 -19 2 -22 28 -7 6 5 12 4 12 -1 0 -5 12 -14
26 -20 14 -7 23 -16 20 -21 -4 -5 1 -8 9 -7 18 3 32 16 17 16 -7 0 -12 5 -12
12 0 6 9 3 20 -7 14 -13 17 -21 9 -26 -8 -5 -8 -8 0 -13 6 -4 11 -2 11 3 0 6
9 11 20 11 11 0 20 -7 20 -15 0 -8 8 -15 18 -16 14 0 14 -2 -3 -9 l-20 -9 20
-1 c11 -2 25 -2 32 -1 6 1 14 -3 17 -8 3 -5 16 -7 28 -3 14 3 19 2 14 -6 -9
-15 16 -16 31 -1 7 7 10 3 8 -15 -2 -15 1 -24 6 -20 5 3 7 10 4 15 -4 5 4 9
17 8 13 0 17 -3 11 -6 -15 -6 -17 -29 -3 -38 6 -4 7 1 3 11 -5 14 -3 15 14 6
11 -6 23 -8 27 -5 3 3 6 1 6 -5 0 -6 6 -12 13 -15 6 -2 4 -3 -5 -2 -10 2 -18
-2 -18 -7 0 -7 14 -8 35 -5 26 4 34 3 29 -6 -5 -8 -3 -8 7 1 19 18 28 15 22
-8 -4 -15 0 -20 16 -20 11 0 21 -5 21 -10 0 -6 14 -4 33 5 28 14 30 14 13 0
-12 -9 -15 -15 -7 -15 7 0 11 -6 8 -13 -6 -16 25 -19 35 -3 4 7 13 4 26 -7 10
-9 22 -14 26 -10 4 4 4 0 0 -10 -5 -13 -1 -17 20 -17 14 0 26 -6 26 -12 0 -9
3 -8 10 2 7 11 11 9 19 -13 6 -15 13 -27 16 -27 4 0 3 6 -1 13 -6 10 -4 10 7
0 7 -7 21 -13 32 -13 10 0 16 -4 13 -9 -3 -5 1 -14 9 -21 13 -11 14 -10 9 4
-3 9 -1 16 5 16 6 0 11 -6 11 -14 0 -9 7 -12 20 -9 12 3 20 0 20 -6 0 -7 4
-10 9 -7 5 4 23 -5 39 -19 16 -13 32 -22 36 -18 3 3 6 1 6 -7 0 -9 3 -10 13
-2 10 9 19 8 34 -3 11 -8 24 -11 29 -7 5 4 2 -2 -6 -12 -10 -13 -10 -17 -2
-12 7 4 12 2 12 -4 0 -8 9 -10 25 -6 18 5 24 3 23 -6 -2 -7 5 -13 14 -13 10 0
23 -7 30 -15 11 -12 11 -12 -4 -2 -12 10 -18 10 -24 1 -4 -7 -3 -9 4 -5 6 3
14 1 18 -5 5 -9 11 -7 21 6 13 18 13 18 13 0 0 -10 3 -15 7 -12 3 4 15 -1 26
-10 11 -10 17 -13 14 -6 -4 6 -3 15 3 18 6 4 10 3 9 -2 -5 -28 2 -45 17 -39
10 4 22 -1 30 -11 13 -17 13 -17 14 2 0 15 3 16 12 7 7 -7 19 -12 28 -12 9 0
26 -11 38 -25 14 -16 27 -23 35 -18 20 12 46 10 51 -3 3 -8 -2 -17 -11 -22
-14 -8 -13 -10 1 -15 10 -4 14 -3 11 3 -3 5 3 14 14 20 16 8 19 8 15 -3 -3 -9
3 -17 16 -20 14 -4 19 -10 14 -18 -4 -8 -3 -10 4 -5 7 4 12 2 12 -4 0 -7 7 -8
18 -3 9 5 24 8 32 7 8 -1 23 -2 33 -3 10 0 16 -5 13 -10 -3 -5 1 -14 9 -21 13
-11 14 -10 8 6 -7 18 -6 18 20 1 15 -10 27 -13 27 -7 0 14 60 -20 61 -35 0 -5
4 -1 9 10 7 16 9 17 9 3 1 -9 6 -20 13 -24 6 -4 8 -3 5 3 -4 7 5 10 22 9 16 0
27 -4 24 -9 -2 -4 -8 -5 -13 -2 -5 3 -11 1 -15 -4 -6 -10 16 -8 50 5 18 7 19
6 5 -11 -14 -17 -14 -18 8 -6 13 7 31 10 40 8 12 -3 11 -5 -5 -6 -12 0 -25 -6
-29 -13 -4 -7 -3 -8 4 -4 7 4 12 2 12 -4 0 -6 4 -9 9 -6 5 3 12 -2 16 -12 6
-16 7 -16 20 2 8 10 18 15 23 12 6 -3 13 0 16 6 4 9 5 8 5 -2 -2 -31 1 -38 19
-35 9 1 16 8 14 14 -2 9 3 9 17 2 11 -6 33 -9 50 -7 16 2 30 1 29 -3 -3 -31 4
-39 29 -35 15 3 30 0 34 -8 7 -10 9 -11 9 0 0 10 5 10 20 2 11 -6 20 -7 20 -3
0 4 5 1 10 -7 6 -10 10 220 10 638 l0 652 -1485 0 c-817 0 -1485 -3 -1485 -6z
m2270 -1064 c-13 -8 -12 -10 4 -10 11 0 17 -3 13 -6 -3 -4 -13 -4 -22 0 -18 6
-11 26 8 26 7 0 6 -4 -3 -10z m387 -152 c-3 -8 -6 -5 -6 6 -1 11 2 17 5 13 3
-3 4 -12 1 -19z m298 -40 c5 4 5 1 1 -6 -6 -10 -11 -10 -22 -1 -8 6 -14 14
-14 16 0 3 6 0 13 -6 8 -6 18 -7 22 -3z"/>
<path d="M6582 9575 c0 -16 2 -22 5 -12 2 9 2 23 0 30 -3 6 -5 -1 -5 -18z"/>
<path d="M6498 9503 c7 -3 16 -2 19 1 4 3 -2 6 -13 5 -11 0 -14 -3 -6 -6z"/>
<path d="M6497 9387 c-3 -8 1 -14 8 -14 7 0 11 6 8 14 -3 7 -6 13 -8 13 -2 0
-5 -6 -8 -13z"/>
<path d="M6496 9271 c-4 -5 -2 -12 3 -15 5 -4 12 -2 15 3 4 5 2 12 -3 15 -5 4
-12 2 -15 -3z"/>
<path d="M9330 9229 c0 -5 5 -7 10 -4 6 3 10 8 10 11 0 2 -4 4 -10 4 -5 0 -10
-5 -10 -11z"/>
<path d="M6457 9098 c16 -18 10 -23 -24 -19 -6 1 -15 -4 -19 -10 -5 -9 -2 -10
9 -6 9 3 19 2 22 -3 4 -6 11 -10 17 -10 6 0 8 3 5 7 -4 3 -2 12 3 18 13 16 3
42 -15 42 -13 0 -12 -3 2 -19z"/>
<path d="M9657 9097 c-3 -8 1 -14 8 -14 7 0 11 6 8 14 -3 7 -6 13 -8 13 -2 0
-5 -6 -8 -13z"/>
<path d="M7278 8963 c7 -3 16 -2 19 1 4 3 -2 6 -13 5 -11 0 -14 -3 -6 -6z"/>
<path d="M7920 8941 l-65 -6 48 -11 c26 -6 47 -7 47 -3 0 5 6 9 14 9 14 0 14
-10 -4 -95 -13 -60 -7 -116 19 -167 10 -21 14 -38 9 -38 -6 0 -5 -7 2 -15 7
-8 9 -15 5 -15 -4 0 -2 -7 5 -15 7 -8 10 -21 7 -29 -7 -16 8 -24 41 -21 25 2
28 -5 10 -24 -11 -10 -9 -11 6 -5 13 5 17 4 12 -4 -4 -7 -3 -12 3 -12 5 0 12
6 14 13 4 9 6 9 6 -1 1 -7 5 -11 10 -7 5 3 8 27 6 53 -2 26 -6 85 -10 132 -3
47 -7 114 -10 150 -3 36 -2 59 1 52 5 -10 9 -8 18 8 6 13 16 23 21 24 11 1 20
-222 29 -679 5 -266 6 -289 14 -280 3 3 4 150 2 327 -4 339 -4 388 -2 532 2
111 12 107 16 -5 4 -102 4 -102 16 -94 6 4 8 -22 4 -72 -14 -191 -5 -382 18
-410 6 -7 8 -20 4 -28 -3 -8 -1 -15 4 -15 5 0 8 -6 6 -12 -1 -7 -1 -10 1 -5
14 23 23 0 21 -50 -2 -39 1 -57 8 -56 7 1 11 -5 10 -15 -1 -11 5 -16 18 -14
11 2 15 -1 11 -7 -3 -6 -12 -11 -20 -11 -9 0 -12 -8 -9 -27 6 -30 25 -48 35
-32 4 7 12 4 23 -6 17 -18 22 -30 7 -21 -5 3 -11 -6 -14 -20 -4 -20 0 -28 15
-32 15 -3 19 -11 15 -28 -2 -13 0 -24 5 -24 5 0 6 -5 2 -12 -5 -7 -2 -9 9 -5
11 4 14 2 10 -9 -3 -7 -1 -14 4 -14 5 0 9 -9 9 -19 0 -11 -4 -17 -8 -15 -4 3
-8 -2 -8 -10 0 -9 8 -16 18 -16 14 0 15 -2 2 -10 -13 -8 -12 -10 3 -10 13 0
17 -8 17 -36 0 -27 3 -35 14 -31 13 5 15 -47 16 -380 0 -213 3 -389 6 -392 5
-5 -3 1506 -9 1936 l-2 102 -95 6 c-52 3 -131 11 -175 17 -101 14 -182 17
-265 9z m467 -1038 c0 -8 -6 -9 -19 -2 -10 5 -18 11 -18 12 0 2 8 3 18 3 10 0
19 -6 19 -13z"/>
<path d="M6457 8759 c4 -13 8 -18 11 -10 2 7 -1 18 -6 23 -8 8 -9 4 -5 -13z"/>
<path d="M7213 8670 c0 -25 2 -35 4 -22 2 12 2 32 0 45 -2 12 -4 2 -4 -23z"/>
<path d="M6465 8580 c-3 -6 1 -7 9 -4 18 7 21 14 7 14 -6 0 -13 -4 -16 -10z"/>
<path d="M6437 8429 c7 -7 15 -10 18 -7 3 3 -2 9 -12 12 -14 6 -15 5 -6 -5z"/>
<path d="M6454 8306 c1 -8 5 -18 8 -22 4 -3 5 1 4 10 -1 8 -5 18 -8 22 -4 3
-5 -1 -4 -10z"/>
<path d="M6451 8044 c0 -11 3 -14 6 -6 3 7 2 16 -1 19 -3 4 -6 -2 -5 -13z"/>
<path d="M6460 7965 c-11 -13 -10 -14 4 -9 9 3 16 10 16 15 0 13 -6 11 -20 -6z"/>
<path d="M8183 7850 c0 -25 2 -35 4 -22 2 12 2 32 0 45 -2 12 -4 2 -4 -23z"/>
<path d="M8183 7755 c0 -27 2 -38 4 -22 2 15 2 37 0 50 -2 12 -4 0 -4 -28z"/>
<path d="M6506 7683 c-6 -14 -5 -15 5 -6 7 7 10 15 7 18 -3 3 -9 -2 -12 -12z"/>
<path d="M8426 7615 c-3 -8 -1 -15 4 -15 13 0 22 18 11 24 -5 3 -11 -1 -15 -9z"/>
<path d="M8426 7582 c-3 -5 1 -15 8 -21 11 -10 14 -9 12 3 -3 21 -13 29 -20
18z"/>
<path d="M6525 7450 c4 -6 11 -8 16 -5 14 9 11 15 -7 15 -8 0 -12 -5 -9 -10z"/>
<path d="M6510 7420 c0 -5 7 -7 15 -4 8 4 15 8 15 10 0 2 -7 4 -15 4 -8 0 -15
-4 -15 -10z"/>
<path d="M6576 7281 c-3 -5 3 -11 13 -14 14 -3 18 -1 14 9 -6 16 -19 18 -27 5z"/>
<path d="M6570 7135 c-10 -12 -10 -15 2 -15 8 0 15 7 15 15 0 8 -1 15 -2 15
-2 0 -8 -7 -15 -15z"/>
<path d="M6530 7090 c0 -5 5 -10 11 -10 5 0 7 5 4 10 -3 6 -8 10 -11 10 -2 0
-4 -4 -4 -10z"/>
<path d="M6534 7048 l-19 -21 28 18 c28 18 33 25 19 25 -5 0 -17 -10 -28 -22z"/>
<path d="M6564 6981 c4 -21 21 -25 35 -8 9 12 7 15 -13 19 -17 4 -23 1 -22
-11z"/>
<path d="M6517 6759 c7 -7 15 -10 18 -7 3 3 -2 9 -12 12 -14 6 -15 5 -6 -5z"/>
<path d="M5983 6413 c9 -2 23 -2 30 0 6 3 -1 5 -18 5 -16 0 -22 -2 -12 -5z"/>
<path d="M6088 6383 c12 -2 32 -2 45 0 12 2 2 4 -23 4 -25 0 -35 -2 -22 -4z"/>
<path d="M6397 6283 c-4 -3 -7 -16 -6 -27 0 -19 1 -19 10 3 10 24 8 36 -4 24z"/>
<path d="M6321 6224 c0 -11 3 -14 6 -6 3 7 2 16 -1 19 -3 4 -6 -2 -5 -13z"/>
<path d="M6376 6203 c-6 -14 -5 -15 5 -6 7 7 10 15 7 18 -3 3 -9 -2 -12 -12z"/>
<path d="M6367 6139 c7 -7 15 -10 18 -7 3 3 -2 9 -12 12 -14 6 -15 5 -6 -5z"/>
<path d="M7351 6114 c0 -11 3 -14 6 -6 3 7 2 16 -1 19 -3 4 -6 -2 -5 -13z"/>
<path d="M8472 6100 c0 -19 2 -27 5 -17 2 9 2 25 0 35 -3 9 -5 1 -5 -18z"/>
<path d="M6385 6110 c3 -5 11 -10 16 -10 6 0 7 5 4 10 -3 6 -11 10 -16 10 -6
0 -7 -4 -4 -10z"/>
<path d="M6402 6070 c0 -14 2 -19 5 -12 2 6 2 18 0 25 -3 6 -5 1 -5 -13z"/>
<path d="M6326 6007 c3 -10 9 -15 12 -12 3 3 0 11 -7 18 -10 9 -11 8 -5 -6z"/>
<path d="M6348 5963 c7 -3 16 -2 19 1 4 3 -2 6 -13 5 -11 0 -14 -3 -6 -6z"/>
<path d="M8524 5952 c-6 -4 -11 -14 -12 -22 0 -8 -4 -25 -7 -37 -5 -15 -3 -23
4 -23 7 0 9 5 6 10 -4 6 -1 17 5 25 6 8 8 20 4 26 -5 9 -2 10 9 6 11 -4 14 -2
10 9 -6 16 -5 16 -19 6z"/>
<path d="M8480 5934 c0 -8 5 -12 10 -9 6 4 8 11 5 16 -9 14 -15 11 -15 -7z"/>
<path d="M6450 5845 c0 -13 6 -16 25 -11 18 5 25 2 25 -8 0 -9 -7 -12 -20 -9
-11 3 -26 0 -33 -6 -8 -6 -18 -7 -22 -3 -5 4 -5 1 -1 -6 5 -8 13 -9 26 -2 12
7 20 6 22 -1 4 -13 35 -2 41 15 8 19 -5 34 -36 41 -21 6 -27 4 -27 -10z"/>
<path d="M6524 5813 c-4 -13 -4 -27 0 -30 3 -4 6 3 6 15 0 12 5 22 11 22 6 0
9 -9 6 -20 -3 -11 -1 -20 4 -20 12 0 7 -32 -6 -42 -6 -4 -2 -8 9 -8 16 0 18 5
12 43 -4 23 -8 47 -8 53 -2 20 -28 11 -34 -13z"/>
<path d="M6587 5812 c-31 -6 -12 -27 24 -25 24 2 30 0 19 -7 -8 -5 -12 -11
-10 -14 3 -2 19 7 35 20 l30 25 -34 -6 c-19 -3 -37 -2 -40 3 -3 4 -14 6 -24 4z"/>
<path d="M6474 5765 c-3 -8 -3 -18 0 -24 4 -5 -2 -12 -11 -14 -15 -4 -15 -5 2
-6 17 -1 18 -3 5 -11 -12 -8 -12 -10 5 -11 11 0 28 -2 38 -4 14 -3 17 4 17 35
0 24 -5 40 -15 44 -8 3 -15 1 -15 -4 0 -6 -5 -10 -11 -10 -5 0 -7 5 -4 10 3 6
4 10 0 10 -3 0 -8 -7 -11 -15z m33 -29 c-13 -13 -16 -13 -20 -1 -4 8 1 15 11
18 24 5 27 0 9 -17z"/>
<path d="M6599 5765 c-1 -3 -2 -8 -3 -12 -1 -5 -5 -14 -9 -20 -9 -15 -1 -33
15 -33 5 0 8 6 5 14 -3 7 0 19 6 25 8 8 8 11 -2 11 -7 0 -9 5 -6 10 3 6 4 10
1 10 -3 0 -7 -2 -7 -5z"/>
<path d="M6372 5740 c0 -14 2 -19 5 -12 2 6 2 18 0 25 -3 6 -5 1 -5 -13z"/>
<path d="M6551 5701 c-10 -6 -10 -10 -1 -16 13 -8 24 -1 19 14 -3 6 -10 7 -18
2z"/>
<path d="M6480 5670 c24 -7 23 -7 -10 -12 l-35 -5 38 -1 c27 -2 37 2 37 13 0
10 -9 15 -27 14 l-28 -1 25 -8z"/>
<path d="M6516 5645 c-3 -8 -1 -15 4 -15 6 0 10 7 10 15 0 8 -2 15 -4 15 -2 0
-6 -7 -10 -15z"/>
<path d="M6341 5624 c0 -11 3 -14 6 -6 3 7 2 16 -1 19 -3 4 -6 -2 -5 -13z"/>
<path d="M6388 5633 c7 -3 16 -2 19 1 4 3 -2 6 -13 5 -11 0 -14 -3 -6 -6z"/>
<path d="M6468 5623 c6 -2 18 -2 25 0 6 3 1 5 -13 5 -14 0 -19 -2 -12 -5z"/>
<path d="M6522 5580 c0 -19 2 -27 5 -17 2 9 2 25 0 35 -3 9 -5 1 -5 -18z"/>
<path d="M6580 5594 c0 -8 5 -12 10 -9 6 4 8 11 5 16 -9 14 -15 11 -15 -7z"/>
<path d="M6450 5581 c0 -6 4 -12 8 -15 5 -3 9 1 9 9 0 8 -4 15 -9 15 -4 0 -8
-4 -8 -9z"/>
<path d="M6671 5573 c-1 -6 -10 -9 -21 -6 -12 3 -20 0 -20 -6 0 -7 4 -10 9 -7
5 4 11 0 14 -6 3 -10 7 -10 17 -1 7 6 10 17 7 25 -3 8 -6 8 -6 1z"/>
<path d="M6472 5555 c-11 -12 -10 -15 3 -15 8 0 15 7 15 15 0 18 -2 18 -18 0z"/>
<path d="M6584 5555 c-3 -8 -4 -20 -2 -27 3 -7 7 -1 10 15 6 29 1 36 -8 12z"/>
<path d="M6500 5552 c0 -5 7 -15 15 -22 8 -7 15 -9 15 -6 0 4 -7 14 -15 22 -8
9 -15 11 -15 6z"/>
<path d="M6460 5512 c0 -5 6 -16 13 -27 11 -14 16 -15 22 -5 5 9 4 15 -3 18
-7 2 -10 8 -6 13 3 5 -2 9 -10 9 -9 0 -16 -4 -16 -8z"/>
<path d="M6507 5509 c7 -7 15 -10 18 -7 3 3 -2 9 -12 12 -14 6 -15 5 -6 -5z"/>
<path d="M6548 5495 c-3 -14 -1 -28 3 -31 5 -3 9 9 9 25 0 38 -6 40 -12 6z"/>
<path d="M6346 5477 c3 -10 9 -15 12 -12 3 3 0 11 -7 18 -10 9 -11 8 -5 -6z"/>
<path d="M6510 5481 c0 -6 5 -13 10 -16 6 -3 10 1 10 9 0 9 -4 16 -10 16 -5 0
-10 -4 -10 -9z"/>
<path d="M6469 5457 c6 -8 9 -16 6 -19 -3 -2 2 -5 10 -5 13 0 13 3 -2 19 -19
21 -31 25 -14 5z"/>
<path d="M6541 5434 c0 -11 3 -14 6 -6 3 7 2 16 -1 19 -3 4 -6 -2 -5 -13z"/>
<path d="M6491 5374 c0 -11 3 -14 6 -6 3 7 2 16 -1 19 -3 4 -6 -2 -5 -13z"/>
<path d="M6400 5319 c0 -5 5 -7 10 -4 6 3 10 8 10 11 0 2 -4 4 -10 4 -5 0 -10
-5 -10 -11z"/>
<path d="M7190 5315 c0 -8 4 -15 10 -15 5 0 7 7 4 15 -4 8 -8 15 -10 15 -2 0
-4 -7 -4 -15z"/>
<path d="M7073 5299 c-21 -8 -23 -15 -23 -90 0 -58 3 -80 12 -77 6 2 13 11 16
19 3 11 2 11 -7 -1 -15 -21 -14 1 1 52 9 31 9 44 0 59 -17 27 -15 34 5 18 9
-8 14 -9 10 -2 -4 6 -1 13 5 16 7 2 11 7 8 9 -3 3 -15 2 -27 -3z"/>
<path d="M7140 5295 c0 -10 -5 -13 -12 -9 -7 4 -8 3 -4 -4 10 -17 36 -15 36 2
0 8 -4 18 -10 21 -5 3 -10 -1 -10 -10z"/>
<path d="M6400 5295 c0 -3 7 -17 16 -30 9 -13 12 -30 8 -37 -5 -10 -4 -11 6
-1 15 14 25 57 11 49 -5 -3 -11 1 -15 9 -5 14 -26 22 -26 10z"/>
<path d="M7220 5289 c0 -5 -4 -8 -9 -5 -10 7 -4 -55 7 -66 4 -4 8 12 8 37 0
25 -2 45 -3 45 -2 0 -3 -5 -3 -11z"/>
<path d="M7097 5261 c-4 -17 -3 -21 5 -13 5 5 8 16 6 23 -3 8 -7 3 -11 -10z"/>
<path d="M7179 5278 c-6 -21 -5 -39 2 -44 5 -3 8 6 7 20 -2 22 -6 33 -9 24z"/>
<path d="M6370 5248 c0 -4 6 -8 14 -8 8 0 16 -6 19 -12 3 -7 5 -4 4 7 -1 13
-8 21 -19 21 -10 0 -18 -4 -18 -8z"/>
<path d="M6335 5241 c-3 -5 -2 -12 3 -15 5 -3 9 1 9 9 0 17 -3 19 -12 6z"/>
<path d="M7110 5220 c18 -12 30 -13 30 -2 0 4 -10 9 -22 9 -18 2 -20 0 -8 -7z"/>
<path d="M6378 5203 c7 -3 16 -2 19 1 4 3 -2 6 -13 5 -11 0 -14 -3 -6 -6z"/>
<path d="M6361 5174 c0 -11 3 -14 6 -6 3 7 2 16 -1 19 -3 4 -6 -2 -5 -13z"/>
<path d="M6476 5155 c4 -8 8 -15 10 -15 2 0 4 7 4 15 0 8 -4 15 -10 15 -5 0
-7 -7 -4 -15z"/>
<path d="M6686 5145 c4 -8 11 -15 16 -15 6 0 5 6 -2 15 -7 8 -14 15 -16 15 -2
0 -1 -7 2 -15z"/>
<path d="M6732 5141 c-11 -7 -11 -9 2 -14 10 -4 16 -1 16 8 0 17 -1 17 -18 6z"/>
<path d="M7002 5110 c0 -14 2 -19 5 -12 2 6 2 18 0 25 -3 6 -5 1 -5 -13z"/>
<path d="M7103 5115 c0 -18 19 -15 25 3 2 7 -3 12 -10 12 -8 0 -15 -7 -15 -15z"/>
<path d="M6150 5111 c0 -6 4 -13 10 -16 6 -3 7 1 4 9 -7 18 -14 21 -14 7z"/>
<path d="M6261 5094 c-12 -27 -11 -28 4 -12 10 9 16 21 13 28 -2 7 -10 -1 -17
-16z"/>
<path d="M6681 4997 c1 -135 8 -217 18 -217 9 0 8 153 -1 166 -4 6 -4 14 0 18
4 4 7 41 8 82 1 58 -2 74 -13 74 -11 0 -14 -23 -12 -123z"/>
<path d="M6380 5103 c0 -15 18 -35 23 -27 3 5 -1 15 -9 22 -8 7 -14 9 -14 5z"/>
<path d="M5291 5077 c-13 -21 -12 -21 5 -5 10 10 16 20 13 22 -3 3 -11 -5 -18
-17z"/>
<path d="M6924 5070 c-1 -17 3 -30 7 -30 5 0 9 3 9 8 0 4 16 7 35 6 22 -1 35
3 35 11 0 8 -9 10 -25 7 -18 -3 -25 0 -25 12 0 9 -8 16 -17 16 -13 0 -18 -9
-19 -30z"/>
<path d="M6970 5089 c0 -5 5 -7 10 -4 6 3 10 8 10 11 0 2 -4 4 -10 4 -5 0 -10
-5 -10 -11z"/>
<path d="M5406 5054 c-18 -17 -20 -24 -8 -24 4 0 13 9 20 20 15 24 9 26 -12 4z"/>
<path d="M6495 5060 c-3 -5 -1 -10 4 -10 6 0 11 5 11 10 0 6 -2 10 -4 10 -3 0
-8 -4 -11 -10z"/>
<path d="M7050 5020 c0 -29 3 -50 7 -47 8 9 8 86 -1 94 -3 4 -6 -18 -6 -47z"/>
<path d="M6745 5050 c4 -6 11 -8 16 -5 14 9 11 15 -7 15 -8 0 -12 -5 -9 -10z"/>
<path d="M5645 5029 c-4 -6 -5 -12 -2 -15 2 -3 7 2 10 11 7 17 1 20 -8 4z"/>
<path d="M6978 5028 c10 -13 10 -17 0 -21 -7 -3 -4 -5 8 -4 13 1 20 8 21 21 1
12 -1 15 -4 8 -4 -10 -8 -10 -21 0 -15 11 -15 11 -4 -4z"/>
<path d="M7288 5020 c-18 -15 -21 -21 -10 -31 6 -7 12 -21 12 -30 0 -9 7 -19
15 -22 11 -5 12 -1 5 19 -13 33 -13 34 8 34 13 1 11 4 -8 16 -14 8 -18 13 -9
11 22 -7 46 8 25 16 -8 3 -25 -2 -38 -13z"/>
<path d="M6788 5005 c2 -14 6 -25 8 -25 2 0 4 11 4 25 0 14 -4 25 -9 25 -4 0
-6 -11 -3 -25z"/>
<path d="M6827 5014 c4 -11 8 -12 13 -4 5 8 11 6 20 -4 10 -13 9 -17 -4 -22
-13 -5 -14 -9 -5 -20 6 -8 8 -26 5 -41 -5 -21 -4 -24 4 -13 5 8 10 23 10 32 0
18 18 34 27 24 3 -3 1 -11 -5 -19 -8 -10 -6 -13 8 -13 10 0 17 3 14 7 -2 4 6
10 18 12 l23 4 -23 2 c-14 0 -22 6 -19 14 2 6 11 11 21 9 9 -2 16 2 16 8 0 13
-37 13 -45 0 -4 -6 -12 -4 -21 5 -9 8 -13 18 -10 23 2 4 -8 9 -24 10 -23 2
-28 -1 -23 -14z m44 -47 c-10 -9 -11 -8 -5 6 3 10 9 15 12 12 3 -3 0 -11 -7
-18z"/>
<path d="M7120 5015 c6 -8 9 -19 5 -25 -3 -5 -2 -10 3 -10 5 0 12 9 15 20 3
11 1 18 -4 14 -5 -3 -9 0 -9 5 0 6 -5 11 -11 11 -8 0 -8 -4 1 -15z"/>
<path d="M7186 5017 c3 -10 9 -15 12 -12 3 3 0 11 -7 18 -10 9 -11 8 -5 -6z"/>
<path d="M7228 5023 c6 -2 10 -9 7 -13 -3 -5 4 -14 16 -20 20 -11 20 -12 3
-31 -10 -11 -12 -19 -6 -19 7 0 12 5 12 11 0 5 5 7 10 4 6 -3 10 1 10 9 0 8
-5 18 -10 21 -6 4 -8 16 -4 28 6 22 6 22 -10 2 -13 -16 -15 -17 -10 -2 4 12 1
17 -12 16 -11 0 -14 -3 -6 -6z"/>
<path d="M6320 5010 c-9 -6 -10 -10 -3 -10 6 0 15 5 18 10 8 12 4 12 -15 0z"/>
<path d="M7023 4950 c0 -36 2 -50 4 -32 2 17 2 47 0 65 -2 17 -4 3 -4 -33z"/>
<path d="M6388 4993 c7 -3 16 -2 19 1 4 3 -2 6 -13 5 -11 0 -14 -3 -6 -6z"/>
<path d="M6755 4989 c-4 -6 -5 -12 -2 -15 2 -3 7 2 10 11 7 17 1 20 -8 4z"/>
<path d="M6338 4983 c6 -2 18 -2 25 0 6 3 1 5 -13 5 -14 0 -19 -2 -12 -5z"/>
<path d="M6490 4980 c0 -5 7 -7 15 -4 8 4 15 8 15 10 0 2 -7 4 -15 4 -8 0 -15
-4 -15 -10z"/>
<path d="M6967 4973 c9 -3 10 -10 3 -23 -6 -11 -6 -21 -1 -24 5 -3 12 1 15 10
11 28 6 44 -11 43 -11 0 -13 -3 -6 -6z"/>
<path d="M6820 4950 c-13 -8 -12 -10 3 -10 9 0 17 5 17 10 0 12 -1 12 -20 0z"/>
<path d="M6310 4942 c0 -5 7 -15 15 -22 8 -7 15 -9 15 -6 0 4 -7 14 -15 22 -8
9 -15 11 -15 6z"/>
<path d="M6746 4942 c-2 -4 -1 -14 5 -22 7 -12 9 -10 9 8 0 23 -5 28 -14 14z"/>
<path d="M5610 4925 c-7 -9 -8 -15 -2 -15 5 0 12 7 16 15 3 8 4 15 2 15 -2 0
-9 -7 -16 -15z"/>
<path d="M6940 4919 c7 -11 14 -19 16 -16 7 7 -7 37 -17 37 -6 0 -5 -9 1 -21z"/>
<path d="M7261 4931 c-10 -7 -11 -13 -2 -30 13 -24 12 -25 -22 -12 -21 8 -26
6 -30 -10 -3 -10 -1 -19 4 -19 5 0 9 -7 9 -15 0 -12 4 -11 20 5 24 24 40 26
40 4 0 -8 4 -13 8 -10 4 2 8 -4 8 -15 0 -23 -3 -23 -23 -4 -8 9 -18 13 -22 9
-3 -4 0 -9 7 -11 6 -3 12 -9 12 -14 0 -6 -4 -7 -10 -4 -6 3 -7 -1 -4 -9 3 -9
10 -16 16 -16 5 0 7 4 4 9 -3 5 11 7 32 5 30 -2 33 -1 19 7 -18 10 -18 12 -1
30 17 18 16 20 -2 35 -18 15 -18 15 4 11 19 -4 21 -3 12 8 -7 8 -9 24 -5 37 3
13 3 18 -2 12 -9 -13 -43 -15 -43 -2 0 10 -11 10 -29 -1z"/>
<path d="M7220 4921 c0 -5 5 -13 10 -16 6 -3 10 -2 10 4 0 5 -4 13 -10 16 -5
3 -10 2 -10 -4z"/>
<path d="M6185 4909 c-4 -6 -5 -12 -2 -15 2 -3 7 2 10 11 7 17 1 20 -8 4z"/>
<path d="M6796 4912 c-3 -5 1 -9 9 -9 8 0 12 4 9 9 -3 4 -7 8 -9 8 -2 0 -6 -4
-9 -8z"/>
<path d="M7050 4893 c0 -21 3 -24 9 -14 5 8 7 20 4 28 -8 21 -13 15 -13 -14z"/>
<path d="M6976 4894 c-3 -8 -11 -12 -17 -8 -8 4 -9 3 -5 -4 5 -8 13 -9 25 -2
10 5 22 6 27 2 5 -4 2 1 -5 11 -16 21 -17 21 -25 1z"/>
<path d="M6270 4890 c0 -5 5 -10 11 -10 5 0 7 5 4 10 -3 6 -8 10 -11 10 -2 0
-4 -4 -4 -10z"/>
<path d="M6755 4889 c-4 -6 -5 -12 -2 -15 2 -3 7 2 10 11 7 17 1 20 -8 4z"/>
<path d="M6306 4877 c3 -10 9 -15 12 -12 3 3 0 11 -7 18 -10 9 -11 8 -5 -6z"/>
<path d="M6804 4878 c-3 -4 0 -8 6 -8 6 0 8 -5 5 -11 -4 -6 -12 -8 -19 -6 -6
3 -17 -1 -23 -8 -10 -10 -9 -15 4 -19 9 -4 20 -1 24 5 4 6 12 8 19 4 8 -5 11
-3 8 6 -3 8 -2 21 3 30 5 11 3 16 -7 16 -8 0 -17 -4 -20 -9z"/>
<path d="M6860 4880 c8 -5 20 -10 25 -10 6 0 3 5 -5 10 -8 5 -19 10 -25 10 -5
0 -3 -5 5 -10z"/>
<path d="M6175 4870 c3 -5 8 -10 11 -10 2 0 4 5 4 10 0 6 -5 10 -11 10 -5 0
-7 -4 -4 -10z"/>
<path d="M6250 4873 c0 -15 18 -35 23 -27 3 5 -1 15 -9 22 -8 7 -14 9 -14 5z"/>
<path d="M6930 4843 c0 -10 4 -14 8 -8 4 6 11 13 16 18 5 4 2 7 -7 7 -10 0
-17 -8 -17 -17z"/>
<path d="M7021 4844 c0 -11 3 -14 6 -6 3 7 2 16 -1 19 -3 4 -6 -2 -5 -13z"/>
<path d="M7051 4843 c-1 -12 4 -25 9 -28 12 -7 12 2 0 30 -8 19 -9 19 -9 -2z"/>
<path d="M6885 4841 c3 -5 -3 -11 -12 -13 -17 -3 -17 -4 -1 -10 12 -5 21 -1
28 12 9 16 8 20 -5 20 -9 0 -14 -4 -10 -9z"/>
<path d="M6672 4810 c0 -19 2 -27 5 -17 2 9 2 25 0 35 -3 9 -5 1 -5 -18z"/>
<path d="M6840 4831 c0 -5 -8 -11 -17 -13 -15 -3 -14 -5 5 -10 17 -5 22 -2 22
13 0 10 -2 19 -5 19 -3 0 -5 -4 -5 -9z"/>
<path d="M6984 4829 c-4 -7 -3 -9 4 -5 5 3 13 0 15 -6 4 -9 6 -10 6 -1 1 17
-16 25 -25 12z"/>
<path d="M6248 4823 c12 -2 32 -2 45 0 12 2 2 4 -23 4 -25 0 -35 -2 -22 -4z"/>
<path d="M6930 4809 c0 -5 5 -7 10 -4 6 3 10 8 10 11 0 2 -4 4 -10 4 -5 0 -10
-5 -10 -11z"/>
<path d="M6455 4800 c-3 -5 -1 -10 4 -10 6 0 11 5 11 10 0 6 -2 10 -4 10 -3 0
-8 -4 -11 -10z"/>
<path d="M6500 4801 c0 -7 -5 -9 -12 -5 -7 5 -8 3 -3 -5 5 -9 10 -10 18 -2 6
6 8 14 4 18 -4 3 -7 1 -7 -6z"/>
<path d="M6528 4793 c7 -3 16 -2 19 1 4 3 -2 6 -13 5 -11 0 -14 -3 -6 -6z"/>
<path d="M6776 4791 c-9 -13 9 -22 28 -15 9 3 16 1 16 -5 0 -7 7 -11 16 -9 10
2 19 -3 21 -9 3 -8 -4 -13 -16 -13 -15 0 -20 -5 -18 -20 5 -32 16 -35 26 -6 6
14 17 26 26 26 17 0 18 14 5 45 -5 11 -9 14 -9 6 -1 -13 -17 -12 -73 5 -9 3
-19 0 -22 -5z m104 -31 c0 -5 -2 -10 -4 -10 -3 0 -8 5 -11 10 -3 6 -1 10 4 10
6 0 11 -4 11 -10z"/>
<path d="M6735 4780 c-3 -5 -1 -10 4 -10 6 0 11 5 11 10 0 6 -2 10 -4 10 -3 0
-8 -4 -11 -10z"/>
<path d="M6926 4773 c-8 -19 8 -40 18 -24 4 6 1 11 -6 11 -10 0 -10 2 1 9 8 5
9 11 3 15 -5 3 -13 -2 -16 -11z"/>
<path d="M7280 4764 c0 -9 5 -12 12 -8 7 5 8 3 3 -6 -6 -10 -11 -9 -21 4 -12
17 -13 16 -23 -3 -9 -16 -8 -21 9 -26 11 -4 18 -11 15 -16 -4 -5 -1 -9 4 -9 6
0 11 -9 11 -20 0 -11 -5 -20 -11 -20 -5 0 -8 4 -5 9 3 4 -3 16 -14 26 -11 10
-20 13 -20 8 0 -6 7 -13 15 -17 8 -3 14 -11 13 -18 -2 -7 4 -13 12 -13 8 0 19
-4 23 -10 5 -5 6 4 2 20 -14 63 -14 64 2 58 11 -4 11 -8 3 -13 -9 -5 -9 -9 -1
-14 6 -4 11 -17 11 -28 0 -12 3 -19 6 -15 9 9 11 98 2 103 -4 3 -5 -3 -1 -12
4 -12 3 -15 -6 -10 -7 5 -11 16 -8 25 3 11 -2 17 -14 18 -11 1 -19 -5 -19 -13z"/>
<path d="M6465 4760 c-3 -5 -2 -10 4 -10 5 0 13 5 16 10 3 6 2 10 -4 10 -5 0
-13 -4 -16 -10z"/>
<path d="M6679 4768 c-1 -2 -3 -31 -4 -65 -2 -48 1 -63 13 -68 8 -3 20 -1 26
5 7 7 3 10 -13 10 -12 0 -19 4 -16 10 4 6 12 8 18 4 7 -3 5 0 -3 8 -8 7 -16
24 -18 37 -2 20 0 22 13 11 8 -7 15 -9 15 -5 0 4 -8 14 -17 22 -17 14 -17 14
1 9 16 -6 17 -4 6 9 -12 14 -18 18 -21 13z"/>
<path d="M7050 4763 c0 -6 8 -17 18 -24 16 -13 16 -13 2 6 -8 11 -16 22 -17
24 -2 2 -3 0 -3 -6z"/>
<path d="M6793 4748 c3 -9 1 -18 -6 -21 -6 -2 -4 -6 6 -10 19 -7 23 10 6 33
-9 13 -10 13 -6 -2z"/>
<path d="M7200 4734 c0 -8 5 -12 10 -9 6 3 10 10 10 16 0 5 -4 9 -10 9 -5 0
-10 -7 -10 -16z"/>
<path d="M6450 4730 c0 -5 5 -10 10 -10 6 0 10 5 10 10 0 6 -4 10 -10 10 -5 0
-10 -4 -10 -10z"/>
<path d="M6888 4723 c6 -2 10 -9 6 -14 -3 -5 0 -9 5 -9 6 0 11 7 11 15 0 8 -8
15 -17 14 -11 0 -13 -3 -5 -6z"/>
<path d="M7023 4685 c0 -27 2 -38 4 -22 2 15 2 37 0 50 -2 12 -4 0 -4 -28z"/>
<path d="M7893 4712 c-15 -10 -33 -57 -33 -87 0 -20 7 -25 34 -31 19 -3 39 -3
44 0 13 8 3 46 -12 46 -6 0 -4 5 4 10 10 6 11 10 3 10 -7 0 -13 7 -13 15 0 8
-4 15 -10 15 -5 0 -7 7 -4 15 7 17 4 18 -13 7z"/>
<path d="M7958 4653 c4 -65 15 -87 37 -80 12 4 18 107 8 123 -5 6 -17 14 -28
18 -20 6 -21 3 -17 -61z"/>
<path d="M6775 4689 c-19 -9 -19 -9 1 -5 17 3 20 -1 17 -15 -4 -15 -2 -18 13
-12 10 4 13 8 7 10 -7 3 -9 11 -6 19 6 16 -3 17 -32 3z"/>
<path d="M6835 4660 c-3 -5 -1 -10 4 -10 6 0 11 5 11 10 0 6 -2 10 -4 10 -3 0
-8 -4 -11 -10z"/>
<path d="M6921 4644 c0 -11 3 -14 6 -6 3 7 2 16 -1 19 -3 4 -6 -2 -5 -13z"/>
<path d="M7022 4600 c0 -19 2 -27 5 -17 2 9 2 25 0 35 -3 9 -5 1 -5 -18z"/>
<path d="M7311 4617 c-8 -10 -7 -14 2 -14 8 0 14 6 14 14 0 7 -1 13 -2 13 -2
0 -8 -6 -14 -13z"/>
<path d="M6837 4603 c-2 -5 -4 -24 -6 -44 -2 -28 3 -39 22 -52 24 -16 24 -15
21 20 -3 42 -11 53 -25 33 -7 -11 -8 -6 -4 18 6 29 2 43 -8 25z m23 -73 c0 -5
-4 -10 -10 -10 -5 0 -10 5 -10 10 0 6 5 10 10 10 6 0 10 -4 10 -10z"/>
<path d="M6937 4589 c4 -13 8 -18 11 -10 2 7 -1 18 -6 23 -8 8 -9 4 -5 -13z"/>
<path d="M6872 4588 c3 -7 12 -14 22 -14 13 -2 13 -1 1 3 -8 2 -13 9 -10 14 4
5 1 9 -5 9 -7 0 -10 -6 -8 -12z"/>
<path d="M7090 4590 c-9 -6 -10 -10 -3 -10 6 0 15 5 18 10 8 12 4 12 -15 0z"/>
<path d="M7578 4551 c-2 -17 -1 -28 3 -26 10 7 18 55 9 55 -4 0 -10 -13 -12
-29z"/>
<path d="M7965 4560 c-3 -5 -1 -10 4 -10 6 0 11 5 11 10 0 6 -2 10 -4 10 -3 0
-8 -4 -11 -10z"/>
<path d="M7634 4546 c-8 -21 3 -49 16 -41 5 3 10 15 10 25 0 25 -18 36 -26 16z"/>
<path d="M7785 4520 c-3 -5 -1 -10 4 -10 6 0 11 5 11 10 0 6 -2 10 -4 10 -3 0
-8 -4 -11 -10z"/>
<path d="M7853 4480 c-1 -23 -7 -48 -14 -56 -9 -11 -8 -14 4 -14 20 0 33 62
20 92 -7 16 -9 12 -10 -22z"/>
<path d="M7425 4410 c-6 -17 0 -69 12 -112 2 -10 13 -18 24 -18 11 0 18 -4 15
-9 -15 -23 67 -49 92 -29 11 9 14 9 9 1 -10 -16 72 -39 93 -25 33 21 23 39
-27 47 -26 4 -70 17 -98 30 -27 13 -62 27 -77 30 -16 4 -28 11 -28 15 0 9 35
22 67 24 30 2 52 23 32 31 -37 13 -102 35 -105 35 -1 0 -5 -9 -9 -20z"/>
<path d="M7295 4400 c-3 -5 -1 -10 4 -10 6 0 11 5 11 10 0 6 -2 10 -4 10 -3 0
-8 -4 -11 -10z"/>
<path d="M7607 4316 c-4 -9 6 -20 28 -30 42 -20 45 -20 45 4 0 11 -7 20 -15
20 -8 0 -15 5 -15 10 0 15 -37 12 -43 -4z"/>
<path d="M4768 3973 c7 -3 16 -2 19 1 4 3 -2 6 -13 5 -11 0 -14 -3 -6 -6z"/>
<path d="M5293 3973 c-7 -2 -13 -8 -13 -12 0 -4 6 -8 13 -8 6 0 26 -3 42 -7
29 -6 29 -6 -3 7 -18 7 -30 16 -26 20 8 8 5 8 -13 0z"/>
<path d="M5372 3937 c-8 -9 0 -12 31 -13 23 -1 35 1 27 4 -8 2 -22 8 -31 13
-11 5 -21 4 -27 -4z"/>
<path d="M5728 3863 c7 -3 16 -2 19 1 4 3 -2 6 -13 5 -11 0 -14 -3 -6 -6z"/>
<path d="M6401 3804 c0 -11 3 -14 6 -6 3 7 2 16 -1 19 -3 4 -6 -2 -5 -13z"/>
<path d="M5904 3798 c-4 -7 -4 -10 1 -6 4 4 15 2 24 -5 14 -11 14 -10 2 6 -16
20 -18 21 -27 5z"/>
<path d="M5958 3783 c7 -3 16 -2 19 1 4 3 -2 6 -13 5 -11 0 -14 -3 -6 -6z"/>
<path d="M6318 3750 c-10 -11 -13 -22 -8 -25 5 -3 14 -20 19 -38 8 -29 9 -29
10 -7 1 22 20 66 21 47 0 -4 9 -3 21 3 16 9 18 14 8 26 -16 19 -50 16 -71 -6z"/>
<path d="M6532 3700 c0 -14 2 -19 5 -12 2 6 2 18 0 25 -3 6 -5 1 -5 -13z"/>
<path d="M2228 3493 c7 -3 16 -2 19 1 4 3 -2 6 -13 5 -11 0 -14 -3 -6 -6z"/>
<path d="M4505 3458 c-17 -15 -27 -37 -31 -63 -13 -104 -14 -105 -39 -105 -18
0 -25 -7 -30 -32 -4 -18 -16 -45 -26 -60 -11 -14 -19 -35 -19 -46 0 -10 -20
-37 -44 -59 -33 -30 -46 -51 -51 -79 -4 -22 -20 -104 -35 -184 -35 -178 -51
-337 -51 -497 1 -133 4 -149 31 -158 14 -5 17 -13 13 -43 -5 -41 10 -69 42
-74 18 -3 20 2 18 53 -2 35 3 68 12 85 9 18 15 60 16 109 1 44 5 107 9 140 5
41 7 10 5 -95 -3 -146 -2 -157 19 -195 28 -49 54 -224 61 -410 3 -101 23 -441
27 -474 0 -3 0 -26 -2 -51 -1 -35 -3 -41 -10 -25 -5 11 -9 14 -9 8 -1 -17 -37
-17 -47 -1 -4 7 -7 27 -6 45 2 24 -2 33 -13 33 -8 0 -15 5 -15 10 0 6 5 10 10
10 6 0 10 11 10 25 0 14 -4 25 -10 25 -5 0 -7 7 -4 15 11 27 -7 38 -29 18 -11
-10 -17 -13 -14 -6 11 18 -9 25 -23 8 -10 -12 -10 -15 1 -15 10 -1 8 -4 -4
-11 -11 -7 -32 -7 -60 -1 -38 9 -39 10 -12 12 17 1 24 4 17 7 -6 2 -10 9 -6
14 3 5 -5 9 -18 9 -41 0 -67 11 -61 26 4 11 -6 14 -38 16 -52 2 -57 2 -131 12
-52 7 -86 21 -55 23 7 1 44 4 82 7 39 3 75 6 80 6 6 0 3 5 -5 10 -11 7 -3 10
30 11 25 0 38 3 30 6 -8 3 -18 10 -21 15 -3 5 -81 15 -173 22 -92 8 -169 16
-172 19 -8 8 134 19 212 17 99 -4 106 -3 102 18 -2 11 -14 18 -33 19 -17 1
-66 6 -110 12 -44 6 -127 15 -184 21 -57 5 -106 12 -109 15 -3 3 21 6 54 6 32
1 73 4 89 8 30 7 30 7 5 13 -14 4 -99 10 -190 14 l-165 8 140 12 c77 7 178 13
225 15 l85 2 -60 8 c-33 5 -151 13 -263 18 -219 10 -277 21 -116 21 103 1 279
21 292 34 4 5 -2 7 -13 5 -11 -1 -27 1 -35 4 -8 4 -40 8 -70 9 -40 3 -49 6
-35 11 11 5 28 13 38 18 10 6 42 13 70 16 88 10 89 22 2 24 -70 2 -74 3 -35 9
40 6 37 7 -31 8 -42 1 -105 5 -140 9 -62 7 -63 8 -24 14 l40 6 -52 3 c-86 4
-101 11 -48 20 38 7 38 7 -18 9 -36 0 -56 5 -52 11 3 6 2 10 -4 10 -5 0 -12
-6 -14 -12 -3 -7 -6 1 -7 17 -1 17 -4 24 -7 18 -3 -8 -22 -13 -51 -12 -45 2
-46 2 -12 8 l35 7 -49 7 c-27 4 -143 7 -259 7 -116 0 -208 2 -206 4 4 4 202
14 339 17 71 2 69 2 -35 10 -60 4 -211 12 -335 18 -124 6 -268 13 -320 17 -52
3 -187 8 -300 10 -113 3 -263 7 -335 9 -71 3 -220 7 -330 10 -110 3 -279 9
-375 15 -314 17 -468 22 -766 24 l-294 2 0 -1098 0 -1098 4720 0 4720 0 0 80
0 80 320 0 320 0 0 -80 0 -80 80 0 80 0 0 1045 0 1045 -197 1 c-109 1 -476 1
-816 0 -391 0 -615 3 -612 9 4 6 25 10 48 10 22 0 37 4 32 8 -6 5 -64 6 -130
2 -66 -3 -394 -7 -730 -7 -335 -1 -643 -4 -682 -7 -45 -4 -73 -2 -73 4 0 6
-57 8 -157 6 -158 -5 -179 -7 -263 -19 -25 -4 -62 -9 -84 -12 -21 -2 -41 -7
-45 -11 -3 -4 170 -5 384 -2 226 3 361 2 320 -3 -58 -7 -355 -13 -850 -18 -49
-1 -84 -5 -78 -9 7 -4 79 -7 160 -6 95 2 135 0 113 -6 -19 -4 -152 -11 -295
-16 -143 -4 -249 -11 -235 -15 23 -6 22 -7 -10 -10 -19 -1 1 -6 45 -9 80 -6
79 -6 -40 -9 -124 -3 -240 -16 -180 -21 l30 -2 -30 -8 c-16 -4 -48 -8 -69 -9
-55 -1 -36 -15 32 -22 l57 -6 -75 -3 c-186 -6 -334 -17 -263 -18 77 -2 108
-18 46 -25 -21 -2 3 -5 52 -6 50 -2 115 -6 145 -11 l55 -7 -80 -3 -80 -3 75
-8 c41 -5 95 -12 120 -17 45 -9 45 -9 -35 -16 -44 -4 -116 -11 -160 -15 l-80
-7 95 -10 95 -9 -95 -6 -95 -5 90 -4 90 -4 -125 -6 c-112 -5 -99 -6 120 -10
135 -2 207 -5 160 -7 -639 -20 -771 -25 -796 -32 -17 -5 28 -7 116 -5 153 3
135 -3 -70 -25 -71 -8 -54 -9 100 -6 116 2 159 0 115 -4 l-70 -7 60 -3 c71 -3
90 -10 91 -33 0 -10 1 -34 2 -54 1 -19 6 -33 11 -29 5 3 12 1 16 -4 3 -6 -3
-15 -13 -20 -11 -6 -22 -20 -25 -31 -3 -11 -1 -18 4 -14 5 3 9 -2 9 -11 0 -9
-4 -13 -10 -10 -5 3 -10 -1 -10 -9 0 -13 26 -16 178 -19 101 -1 22 -4 -183 -6
-225 -2 -351 -6 -335 -12 21 -7 19 -8 -12 -5 -21 3 -40 0 -43 -5 -4 -5 -63
-10 -133 -10 l-127 -2 80 -12 c76 -12 77 -12 29 -14 -84 -2 -143 9 -149 29 -3
10 -15 20 -27 23 -18 5 -20 11 -15 44 4 21 7 91 7 155 l0 117 38 4 37 4 -37 1
-38 2 0 64 c0 120 21 316 39 377 20 62 21 124 8 329 -9 131 10 24 24 -139 9
-98 16 -138 28 -150 12 -12 15 -30 13 -68 -3 -46 -1 -53 16 -53 34 0 55 35 48
79 -4 29 -2 40 9 45 12 4 15 23 15 83 0 198 -45 555 -89 717 -16 55 -28 77
-66 116 -26 27 -45 52 -42 57 3 5 -3 22 -14 39 -10 16 -19 37 -19 47 0 10 -11
29 -25 43 -20 20 -25 35 -25 75 0 63 -13 87 -55 105 -47 19 -70 18 -100 -8z
m75 -1470 c1 -35 5 -97 10 -138 6 -41 12 -104 14 -140 3 -59 3 -61 -4 -15 -5
32 -7 -15 -6 -128 0 -97 -3 -177 -7 -177 -4 0 -4 -8 1 -17 21 -46 0 -175 -24
-150 -17 17 -32 676 -18 781 4 29 12 46 20 46 10 0 14 -17 14 -62z m-1407 25
c-7 -2 -21 -2 -30 0 -10 3 -4 5 12 5 17 0 24 -2 18 -5z m117 -1 c0 -4 -16 -6
-35 -4 -19 2 -35 6 -35 8 0 2 16 4 35 4 19 0 35 -4 35 -8z m2588 -269 c-10 -2
-26 -2 -35 0 -10 3 -2 5 17 5 19 0 27 -2 18 -5z m-1855 -240 c-7 -2 -19 -2
-25 0 -7 3 -2 5 12 5 14 0 19 -2 13 -5z m117 -203 c27 -9 1 -10 -205 -12 -250
-1 -459 4 -435 12 14 4 158 8 320 8 162 0 306 -4 320 -8z m751 1 c-8 -5 -20
-7 -28 -4 -21 8 -15 13 15 13 20 0 23 -3 13 -9z m94 -1 c-3 -5 -15 -10 -25
-10 -10 0 -22 5 -25 10 -4 6 7 10 25 10 18 0 29 -4 25 -10z m-725 -8 c0 -4
-17 -6 -37 -4 -59 5 -63 10 -10 11 26 1 47 -3 47 -7z m491 -82 c6 0 7 -5 4
-10 -4 -7 2 -9 19 -4 16 4 26 2 26 -5 0 -6 -13 -11 -30 -11 -25 0 -30 -4 -30
-25 0 -23 4 -25 43 -25 23 0 49 -5 57 -10 11 -8 -3 -10 -47 -9 l-63 2 1 66 c1
36 3 58 6 49 2 -10 9 -18 14 -18z m62 13 c-7 -2 -21 -2 -30 0 -10 3 -4 5 12 5
17 0 24 -2 18 -5z m-475 -12 c11 -7 10 -9 -3 -14 -9 -4 -14 -3 -10 2 3 5 -1
12 -7 14 -7 3 -8 6 -3 6 6 0 16 -3 23 -8z m234 -36 c-3 -5 2 -4 11 4 15 12 17
11 17 -6 0 -10 -5 -24 -12 -31 -9 -9 -9 -12 0 -12 6 0 9 -7 5 -15 -11 -30 -25
-9 -29 45 -3 37 -1 50 5 40 5 -8 7 -19 3 -25z m571 28 c-13 -2 -35 -2 -50 0
-16 2 -5 4 22 4 28 0 40 -2 28 -4z m-83 -82 c63 -8 62 -8 -53 -12 -108 -4
-117 -3 -117 14 0 16 6 18 53 12 28 -3 81 -10 117 -14z m-630 -6 c0 -8 -9 -10
-25 -7 -32 6 -32 17 0 18 14 1 25 -4 25 -11z m863 8 c-7 -2 -19 -2 -25 0 -7 3
-2 5 12 5 14 0 19 -2 13 -5z"/>
<path d="M4931 1924 c0 -11 3 -14 6 -6 3 7 2 16 -1 19 -3 4 -6 -2 -5 -13z"/>
<path d="M5748 1793 c6 -2 18 -2 25 0 6 3 1 5 -13 5 -14 0 -19 -2 -12 -5z"/>
<path d="M5428 1723 c17 -2 47 -2 65 0 17 2 3 4 -33 4 -36 0 -50 -2 -32 -4z"/>
<path d="M4842 1675 c0 -16 2 -22 5 -12 2 9 2 23 0 30 -3 6 -5 -1 -5 -18z"/>
<path d="M4883 1693 c9 -2 25 -2 35 0 9 3 1 5 -18 5 -19 0 -27 -2 -17 -5z"/>
<path d="M4968 1693 c18 -2 45 -2 60 0 15 2 0 4 -33 4 -33 0 -45 -2 -27 -4z"/>
<path d="M4977 1643 c18 -2 50 -2 70 0 21 2 7 4 -32 4 -38 0 -55 -2 -38 -4z"/>
<path d="M5355 1593 c85 -7 104 -13 102 -32 -1 -16 -11 -18 -76 -20 -98 -3
-106 -11 -12 -11 61 0 75 -3 89 -21 16 -19 17 -18 14 35 l-4 56 -76 -2 c-43
-1 -59 -3 -37 -5z"/>
<path d="M5223 1563 c9 -2 25 -2 35 0 9 3 1 5 -18 5 -19 0 -27 -2 -17 -5z"/>
<path d="M5298 1563 c12 -2 30 -2 40 0 9 3 -1 5 -23 4 -22 0 -30 -2 -17 -4z"/>
<path d="M5360 1566 c0 -2 15 -6 34 -8 19 -2 32 0 30 4 -5 8 -64 12 -64 4z"/>
<path d="M5038 1463 c6 -2 18 -2 25 0 6 3 1 5 -13 5 -14 0 -19 -2 -12 -5z"/>
<path d="M5380 1466 c0 -2 16 -6 35 -8 19 -2 35 0 35 4 0 4 -16 8 -35 8 -19 0
-35 -2 -35 -4z"/>
<path d="M5228 1443 c7 -3 16 -2 19 1 4 3 -2 6 -13 5 -11 0 -14 -3 -6 -6z"/>
<path d="M5327 1438 c-7 -4 16 -8 51 -8 34 0 62 4 62 9 0 10 -97 9 -113 -1z"/>
<path d="M5190 1404 c55 -8 270 -9 270 -1 0 4 -66 6 -147 6 -82 -1 -137 -3
-123 -5z"/>
<path d="M5033 1363 c9 -2 23 -2 30 0 6 3 -1 5 -18 5 -16 0 -22 -2 -12 -5z"/>
</g>
</svg>
